<svg id="noun_Compare_197474" xmlns="http://www.w3.org/2000/svg" width="36.006" height="28.005" viewBox="0 0 36.006 28.005">
  <g id="Group_49" data-name="Group 49" transform="translate(0 0)">
    <path id="Path_47" data-name="Path 47" d="M5.7,22.058H38.616l-4.463,4.463a.7.7,0,1,0,.99.99L40.8,21.854a.7.7,0,0,0,.087-.107.589.589,0,0,0,.029-.054.662.662,0,0,0,.035-.067.636.636,0,0,0,.022-.071.6.6,0,0,0,.018-.06.7.7,0,0,0,0-.274c0-.02-.012-.04-.018-.06a.636.636,0,0,0-.022-.071.663.663,0,0,0-.035-.067c-.01-.018-.018-.037-.029-.054a.7.7,0,0,0-.087-.107l-5.658-5.657a.7.7,0,0,0-.99.99l4.463,4.463H5.7a.7.7,0,1,0,0,1.4Z" transform="translate(-5 -15.001)"/>
    <path id="Path_48" data-name="Path 48" d="M40.307,58.874H7.391l4.463-4.463a.7.7,0,0,0-.99-.99L5.206,59.078a.7.7,0,0,0-.087.107.587.587,0,0,0-.029.054.662.662,0,0,0-.035.067.635.635,0,0,0-.022.071.6.6,0,0,0-.018.06.7.7,0,0,0,0,.274c0,.02.012.04.018.06a.637.637,0,0,0,.022.071.663.663,0,0,0,.035.067c.01.018.018.037.029.054a.7.7,0,0,0,.087.107l5.658,5.658a.7.7,0,0,0,.99-.99L7.391,60.274H40.307a.7.7,0,0,0,0-1.4Z" transform="translate(-5.001 -37.927)"/>
  </g>
</svg>
