<svg id="Layer_1" data-name="Layer 1" xmlns="http://www.w3.org/2000/svg" width="19.079" height="22.249" viewBox="0 0 19.079 22.249">
  <path id="Path_24" data-name="Path 24" d="M17.529,4a3.389,3.389,0,0,0-3.576,3.178V9.562H10.377a.8.8,0,0,0-.795.711l-1.589,15.1a.795.795,0,0,0,.795.878H26.269a.795.795,0,0,0,.795-.878l-1.589-15.1a.8.8,0,0,0-.795-.711H21.1V7.178A3.389,3.389,0,0,0,17.529,4ZM15.542,7.178a1.822,1.822,0,0,1,1.986-1.589,1.822,1.822,0,0,1,1.987,1.589V9.562H15.542Zm8.423,3.973L25.387,24.66H9.67l1.422-13.508h2.861v1.589a.795.795,0,0,0,1.589,0V11.151h3.973v1.589a.795.795,0,0,0,1.589,0V11.151Z" transform="translate(-7.989 -4)" fill="#2d2234"/>
</svg>
