<svg xmlns="http://www.w3.org/2000/svg" width="39.802" height="39.783" viewBox="0 0 39.802 39.783">
  <g id="noun_call_2640501" transform="translate(0.516 0.5)">
    <g id="Group_1950" data-name="Group 1950" transform="translate(0 0)">
      <g id="Group_1949" data-name="Group 1949">
        <path id="Path_1147" data-name="Path 1147" d="M44.291,38.154,38.875,34.37a4.177,4.177,0,0,0-5.821,1.035l-1.257,1.8a46.544,46.544,0,0,1-6.7-5.626,46.481,46.481,0,0,1-5.626-6.7l1.8-1.257A4.186,4.186,0,0,0,22.308,17.8l-3.783-5.415a4.185,4.185,0,0,0-3.415-1.807,3.914,3.914,0,0,0-1.361.243,7.552,7.552,0,0,0-1.408.691l-.748.527a5.728,5.728,0,0,0-.527.471,7.51,7.51,0,0,0-1.925,3.431c-1.559,5.843,2.3,14.678,9.609,21.984,6.135,6.135,13.506,9.947,19.236,9.947h0a10.7,10.7,0,0,0,2.748-.339,7.506,7.506,0,0,0,3.43-1.924,5.558,5.558,0,0,0,.5-.56l.527-.753a7.541,7.541,0,0,0,.666-1.371A4.113,4.113,0,0,0,44.291,38.154Zm0,4.2a5.831,5.831,0,0,1-.491,1.027l-.478.683a3.931,3.931,0,0,1-.333.371,5.854,5.854,0,0,1-2.68,1.491,9.008,9.008,0,0,1-2.316.282h0c-5.3,0-12.22-3.624-18.054-9.458-6.79-6.79-10.563-15.167-9.175-20.371A5.861,5.861,0,0,1,12.249,13.7a4.146,4.146,0,0,1,.339-.309l.678-.478a5.831,5.831,0,0,1,1.065-.516,2.238,2.238,0,0,1,.78-.14,2.513,2.513,0,0,1,2.045,1.093l3.782,5.413a2.512,2.512,0,0,1-.62,3.495l-2.464,1.72a.836.836,0,0,0-.229,1.13,46.246,46.246,0,0,0,6.293,7.659,46.263,46.263,0,0,0,7.659,6.294.837.837,0,0,0,1.131-.229l1.72-2.466a2.571,2.571,0,0,1,3.493-.62l5.414,3.783A2.441,2.441,0,0,1,44.287,42.35Z" transform="translate(-8.8 -9.094)" fill="#f4fa1e" stroke="#f4fa1e" stroke-width="1"/>
        <path id="Path_1148" data-name="Path 1148" d="M45.107,14.883A20.874,20.874,0,0,0,31.64,8.8a.836.836,0,1,0-.1,1.669A19.225,19.225,0,0,1,49.518,28.454a.836.836,0,0,0,.833.784l.053,0a.836.836,0,0,0,.782-.887A20.876,20.876,0,0,0,45.107,14.883Z" transform="translate(-12.402 -8.802)" fill="#f4fa1e" stroke="#f4fa1e" stroke-width="1"/>
        <path id="Path_1149" data-name="Path 1149" d="M31.161,16.46A14.21,14.21,0,0,1,44.451,29.75a.836.836,0,0,0,.833.784l.053,0a.836.836,0,0,0,.782-.887A15.882,15.882,0,0,0,31.265,14.792a.836.836,0,1,0-.1,1.669Z" transform="translate(-12.341 -9.784)" fill="#f4fa1e" stroke="#f4fa1e" stroke-width="1"/>
        <path id="Path_1150" data-name="Path 1150" d="M30.786,22.449a9.195,9.195,0,0,1,8.6,8.6.836.836,0,0,0,.833.784l.053,0a.836.836,0,0,0,.782-.887A10.867,10.867,0,0,0,30.89,20.78a.836.836,0,1,0-.1,1.669Z" transform="translate(-12.279 -10.767)" fill="#f4fa1e" stroke="#f4fa1e" stroke-width="1"/>
      </g>
    </g>
  </g>
</svg>
