<svg xmlns="http://www.w3.org/2000/svg" width="37.444" height="24.526" viewBox="0 0 37.444 24.526">
  <path id="Icon_payment-credit-card" data-name="Icon payment-credit-card" d="M41.092,16.35a2.659,2.659,0,0,1,2.572,2.572V38.3a2.659,2.659,0,0,1-2.572,2.572H8.793A2.341,2.341,0,0,1,7,40.1,2.341,2.341,0,0,1,6.221,38.3V18.922A2.341,2.341,0,0,1,7,17.127a2.344,2.344,0,0,1,1.795-.777h32.3Zm-32.3,2.034q-.3,0-.359.18a.517.517,0,0,0-.18.359v3.589H41.63V18.922a.517.517,0,0,0-.18-.359q-.06-.179-.359-.18Zm32.3,20.458q.3,0,.359-.18a.517.517,0,0,0,.18-.359V28.612H8.254V38.3a.517.517,0,0,0,.18.359q.059.179.359.18h32.3Zm-30.8-2.034V34.714h4.128v2.093Zm6.161,0V34.714h6.1v2.093Z" transform="translate(-6.221 -16.35)" fill="#f4fa1e"/>
</svg>
