<svg xmlns="http://www.w3.org/2000/svg" width="45.818" height="26.002" viewBox="0 0 45.818 26.002">
  <g id="Group_30" data-name="Group 30" transform="translate(0.75 0.499)">
    <path id="Trazado_22" data-name="Trazado 22" d="M1502.26,946.281c-.853,0-1.684.006-2.515,0a2.029,2.029,0,0,1-2.134-1.873c-.052-.391-.012-.77.45-.854s.62.211.688.636c.121.753.369.946,1.114.951.706.005,1.412-.017,2.117.007a.6.6,0,0,0,.671-.424,3.942,3.942,0,0,1,3.823-2.531,4.028,4.028,0,0,1,3.831,2.543.761.761,0,0,0,.537.389c2.63.024,5.26.014,7.891.01a1.054,1.054,0,0,0,.223-.058c.015-.156.043-.319.043-.481q0-8.335,0-16.672c0-1.018-.289-1.3-1.289-1.3h-17.645c-.984,0-1.091.117-1.355,1.065-.061.22-.375.37-.573.552-.181-.223-.506-.437-.52-.67a2.018,2.018,0,0,1,1.94-2.092c.056,0,.112,0,.167,0,1.946-.01,3.893,0,5.839,0h12.19a2.116,2.116,0,0,1,2.388,2.414c0,.555,0,1.109,0,1.767h.716c1.968,0,3.936.015,5.9-.006a1.953,1.953,0,0,1,1.939,1.193c1.145,2.32,2.333,4.618,3.453,6.949a4.505,4.505,0,0,1,.41,1.72c.067,1.6.055,3.207.061,4.811a1.763,1.763,0,0,1-1.939,1.956c-.619.009-1.237,0-1.917,0a4.373,4.373,0,0,1-1.89,3.488,4.105,4.105,0,0,1-2.681.684c-2.053-.165-3.422-1.625-3.826-4.124h-9.728a4.259,4.259,0,0,1-2.032,3.537,4.051,4.051,0,0,1-2.646.575C1503.962,950.22,1502.631,948.757,1502.26,946.281Zm17.9-1.2.18.112a3.085,3.085,0,0,0,.444-.567,4.075,4.075,0,0,1,7.121-.656,2.157,2.157,0,0,0,2.434,1.177,1.19,1.19,0,0,1,.129,0c.87-.008,1.017-.152,1.011-1q-.016-2.15-.04-4.3c0-.224-.027-.448-.047-.746h-7.979c0-1.937,0-3.794,0-5.651,0-.384.144-.691.585-.687s.562.318.561.7c0,1.284.031,2.569-.021,3.85-.022.556.152.723.677.711,1.108-.021,2.217,0,3.325,0h2.371a2.112,2.112,0,0,0-.078-.311c-1.07-2.142-2.13-4.29-3.235-6.413a1.094,1.094,0,0,0-.8-.464c-1.217-.051-2.438-.022-3.657-.022h-2.984Zm4.415,4.248a3,3,0,1,0-3-3.029,3,3,0,0,0,3,3.029Zm-18.1,0a3,3,0,1,0-3.017-3.013,3,3,0,0,0,3.017,3.013Z" transform="translate(-1488.056 -925.47)" fill="#f4fa1e" stroke="#f4fa1e" stroke-width="1"/>
    <path id="Trazado_23" data-name="Trazado 23" d="M1496.667,938.439c-1.5,0-2.991,0-4.488,0-.42,0-.81-.058-.8-.589.011-.484.378-.556.775-.556l9.1,0c.4,0,.765.1.77.568.006.524-.392.581-.81.579C1499.7,938.437,1498.183,938.439,1496.667,938.439Z" transform="translate(-1484.206 -932.796)" fill="#f4fa1e" stroke="#f4fa1e" stroke-width="1"/>
    <path id="Trazado_24" data-name="Trazado 24" d="M1485.81,947.005c1.5,0,2.995.005,4.492,0,.429,0,.821.076.817.583s-.409.57-.831.567q-3.973-.031-7.948-.048a6.536,6.536,0,0,1-1.21.021.936.936,0,0,1-.646-.522c-.082-.4.239-.6.644-.6Z" transform="translate(-1477.443 -938.813)" fill="#f4fa1e" stroke="#f4fa1e" stroke-width="1"/>
    <path id="Trazado_25" data-name="Trazado 25" d="M1484.6,966.929h-4.492c-.405,0-.827-.028-.847-.553-.022-.58.42-.606.852-.6,1.793.02,3.586.05,5.379.054,1.13,0,2.261-.033,3.391-.05.128,0,.291-.052.38.007a7.038,7.038,0,0,1,.652.551c-.209.2-.4.532-.633.56a15.655,15.655,0,0,1-1.922.032Z" transform="translate(-1476.696 -950.437)" fill="#f4fa1e" stroke="#f4fa1e" stroke-width="1"/>
    <path id="Trazado_26" data-name="Trazado 26" d="M1490.174,956.319c2.516,0,5.032-.014,7.548.025a.875.875,0,0,1,.6.557c.1.4-.229.556-.593.55-1.341-.02-2.681-.064-4.022-.071-.744,0-1.49.06-2.235.071-.957.013-1.913,0-2.869,0-.426,0-.875-.017-.859-.6.013-.526.421-.562.834-.556.532.008,1.067,0,1.6,0Z" transform="translate(-1481.948 -944.577)" fill="#f4fa1e" stroke="#f4fa1e" stroke-width="1"/>
    <path id="Trazado_27" data-name="Trazado 27" d="M1474.745,957.437a10.079,10.079,0,0,1-1.6-.026c-.235-.038-.424-.358-.634-.551.214-.186.42-.523.644-.535,1.086-.057,2.178-.04,3.267-.023.352.006.7.11.7.57s-.369.544-.713.562c-.554.03-1.11.008-1.665.008Z" transform="translate(-1472.513 -944.567)" fill="#f4fa1e" stroke="#f4fa1e" stroke-width="1"/>
    <path id="Trazado_28" data-name="Trazado 28" d="M1481.965,938.387a1.769,1.769,0,0,1-.691-.018,2.593,2.593,0,0,1-.585-.535c.187-.193.351-.514.566-.552a4.238,4.238,0,0,1,1.453,0c.217.038.386.351.577.54a2.927,2.927,0,0,1-.629.554,1.749,1.749,0,0,1-.691.018Z" transform="translate(-1477.58 -932.75)" fill="#f4fa1e" stroke="#f4fa1e" stroke-width="1"/>
  </g>
</svg>
