<svg xmlns="http://www.w3.org/2000/svg" width="28.005" height="25.099" viewBox="0 0 28.005 25.099">
  <path id="Path_46" data-name="Path 46" d="M18.437,967.4a7.275,7.275,0,0,0-5.283,2.266,7.947,7.947,0,0,0,0,10.913L24.2,992.162a1.077,1.077,0,0,0,1.559,0L36.82,980.587a7.944,7.944,0,0,0,0-10.913,7.278,7.278,0,0,0-10.565,0l-1.267,1.312-1.267-1.323A7.275,7.275,0,0,0,18.437,967.4Zm0,2.109a5.163,5.163,0,0,1,3.735,1.649l2.041,2.142a1.077,1.077,0,0,0,1.559,0l2.03-2.131a5.048,5.048,0,0,1,7.459,0,5.8,5.8,0,0,1,0,7.941q-5.136,5.375-10.274,10.745L14.714,979.1a5.8,5.8,0,0,1,0-7.941A5.138,5.138,0,0,1,18.437,969.505Z" transform="translate(-10.985 -967.397)"/>
</svg>
