<svg xmlns="http://www.w3.org/2000/svg" width="86.176" height="61.065" viewBox="0 0 86.176 61.065">
  <g id="Group_65" data-name="Group 65" transform="translate(0.664 1)">
    <rect id="Rectangle_18" data-name="Rectangle 18" width="73.989" height="35.92" transform="translate(5.482 20.226)" fill="none" stroke="#000" stroke-miterlimit="10" stroke-width="2"/>
    <g id="Group_64" data-name="Group 64" transform="translate(0.342)">
      <g id="Group_38" data-name="Group 38" transform="translate(0.124 19.872)">
        <path id="Path_42" data-name="Path 42" d="M1041.932,948.5a4.6,4.6,0,0,0,9.208,0Z" transform="translate(-1041.509 -948.081)" fill="none" stroke="#000" stroke-miterlimit="10" stroke-width="2"/>
        <path id="Path_43" data-name="Path 43" d="M1046.52,953.514a5.031,5.031,0,0,1-5.026-5.025.422.422,0,0,1,.422-.423h9.208a.422.422,0,0,1,.422.423A5.032,5.032,0,0,1,1046.52,953.514Zm-4.161-4.6a4.183,4.183,0,0,0,8.322,0Z" transform="translate(-1041.494 -948.066)" fill="none" stroke="#000" stroke-miterlimit="10" stroke-width="2"/>
      </g>
      <g id="Group_39" data-name="Group 39" transform="translate(9.332 19.872)">
        <path id="Path_44" data-name="Path 44" d="M1051.479,948.5a4.6,4.6,0,1,0,9.206,0Z" transform="translate(-1051.057 -948.081)" fill="none" stroke="#000" stroke-miterlimit="10" stroke-width="2"/>
        <path id="Path_45" data-name="Path 45" d="M1056.066,953.514a5.03,5.03,0,0,1-5.025-5.025.422.422,0,0,1,.422-.423h9.206a.422.422,0,0,1,.422.423A5.031,5.031,0,0,1,1056.066,953.514Zm-4.16-4.6a4.181,4.181,0,0,0,8.32,0Z" transform="translate(-1051.041 -948.066)" fill="none" stroke="#000" stroke-miterlimit="10" stroke-width="2"/>
      </g>
      <g id="Group_40" data-name="Group 40" transform="translate(27.747 19.872)">
        <path id="Path_46" data-name="Path 46" d="M1070.57,948.5a4.6,4.6,0,0,0,9.208,0Z" transform="translate(-1070.149 -948.081)" fill="none" stroke="#000" stroke-miterlimit="10" stroke-width="2"/>
        <path id="Path_47" data-name="Path 47" d="M1075.157,953.514a5.031,5.031,0,0,1-5.024-5.025.422.422,0,0,1,.422-.423h9.208a.422.422,0,0,1,.422.423A5.032,5.032,0,0,1,1075.157,953.514Zm-4.159-4.6a4.182,4.182,0,0,0,8.321,0Z" transform="translate(-1070.133 -948.066)" fill="none" stroke="#000" stroke-miterlimit="10" stroke-width="2"/>
      </g>
      <g id="Group_41" data-name="Group 41" transform="translate(36.954 19.872)">
        <path id="Path_48" data-name="Path 48" d="M1080.117,948.5a4.6,4.6,0,1,0,9.207,0Z" transform="translate(-1079.694 -948.081)" fill="none" stroke="#000" stroke-miterlimit="10" stroke-width="2"/>
        <path id="Path_49" data-name="Path 49" d="M1084.7,953.514a5.03,5.03,0,0,1-5.024-5.025.422.422,0,0,1,.422-.423h9.207a.422.422,0,0,1,.422.423A5.032,5.032,0,0,1,1084.7,953.514Zm-4.159-4.6a4.182,4.182,0,0,0,8.321,0Z" transform="translate(-1079.679 -948.066)" fill="none" stroke="#000" stroke-miterlimit="10" stroke-width="2"/>
      </g>
      <g id="Group_42" data-name="Group 42" transform="translate(18.539 19.872)">
        <path id="Path_50" data-name="Path 50" d="M1061.024,948.5a4.6,4.6,0,0,0,9.207,0Z" transform="translate(-1060.601 -948.081)" fill="none" stroke="#000" stroke-miterlimit="10" stroke-width="2"/>
        <path id="Path_51" data-name="Path 51" d="M1065.612,953.514a5.031,5.031,0,0,1-5.026-5.025.422.422,0,0,1,.423-.423h9.207a.422.422,0,0,1,.423.423A5.031,5.031,0,0,1,1065.612,953.514Zm-4.16-4.6a4.182,4.182,0,0,0,8.321,0Z" transform="translate(-1060.586 -948.066)" fill="none" stroke="#000" stroke-miterlimit="10" stroke-width="2"/>
      </g>
      <g id="Group_44" data-name="Group 44" transform="translate(9.332)">
        <g id="Group_43" data-name="Group 43">
          <path id="Path_52" data-name="Path 52" d="M1062.863,927.9l-2.178,19.872h-9.207L1055.5,927.9Z" transform="translate(-1051.056 -927.479)" fill="none" stroke="#000" stroke-miterlimit="10" stroke-width="2"/>
          <path id="Path_53" data-name="Path 53" d="M1060.67,948.179h-9.206a.421.421,0,0,1-.414-.505l4.02-19.872a.422.422,0,0,1,.414-.339h7.364a.421.421,0,0,1,.419.468l-2.178,19.873A.421.421,0,0,1,1060.67,948.179Zm-8.69-.844h8.312l2.084-19.028h-6.547Z" transform="translate(-1051.041 -927.463)" fill="none" stroke="#000" stroke-miterlimit="10" stroke-width="2"/>
        </g>
      </g>
      <g id="Group_46" data-name="Group 46" transform="translate(27.747)">
        <g id="Group_45" data-name="Group 45">
          <path id="Path_54" data-name="Path 54" d="M1079.763,948.179h-9.208a.42.42,0,0,1-.422-.426l1.085-19.873a.423.423,0,0,1,.422-.417h8.775a.421.421,0,0,1,.307.132.417.417,0,0,1,.115.313l-.653,19.872A.422.422,0,0,1,1079.763,948.179Zm-8.781-.844h8.381l.608-19.028h-7.912Z" transform="translate(-1070.133 -927.463)" fill="none" stroke="#000" stroke-miterlimit="10" stroke-width="2"/>
        </g>
      </g>
      <g id="Group_48" data-name="Group 48" transform="translate(18.539)">
        <g id="Group_47" data-name="Group 47">
          <path id="Path_55" data-name="Path 55" d="M1070.216,948.179h-9.207a.424.424,0,0,1-.314-.14.42.42,0,0,1-.105-.328l2.178-19.872a.421.421,0,0,1,.42-.376h7.994a.421.421,0,0,1,.306.131.417.417,0,0,1,.116.311l-.963,19.872A.423.423,0,0,1,1070.216,948.179Zm-8.737-.844h8.334l.924-19.028h-7.173Z" transform="translate(-1060.586 -927.463)" fill="none" stroke="#000" stroke-miterlimit="10" stroke-width="2"/>
        </g>
      </g>
      <g id="Group_50" data-name="Group 50">
        <g id="Group_49" data-name="Group 49">
          <path id="Path_56" data-name="Path 56" d="M1051.12,948.179h-9.333a.421.421,0,0,1-.405-.537l5.673-19.873a.421.421,0,0,1,.406-.306h7.678a.421.421,0,0,1,.414.505l-4.021,19.873A.42.42,0,0,1,1051.12,948.179Zm-8.772-.844h8.427l3.85-19.028h-6.844Z" transform="translate(-1041.366 -927.463)" fill="none" stroke="#000" stroke-miterlimit="10" stroke-width="2"/>
        </g>
      </g>
      <g id="Group_51" data-name="Group 51" transform="translate(73.988 19.872)">
        <path id="Path_57" data-name="Path 57" d="M1127.72,948.5a4.6,4.6,0,0,1-9.208,0Z" transform="translate(-1118.09 -948.081)" fill="none" stroke="#000" stroke-miterlimit="10" stroke-width="2"/>
        <path id="Path_58" data-name="Path 58" d="M1123.1,953.514a5.031,5.031,0,0,1-5.025-5.025.422.422,0,0,1,.422-.423h9.208a.422.422,0,0,1,.422.423A5.031,5.031,0,0,1,1123.1,953.514Zm-4.16-4.6a4.182,4.182,0,0,0,8.321,0Z" transform="translate(-1118.075 -948.066)" fill="none" stroke="#000" stroke-miterlimit="10" stroke-width="2"/>
      </g>
      <g id="Group_52" data-name="Group 52" transform="translate(64.782 19.872)">
        <path id="Path_59" data-name="Path 59" d="M1118.174,948.5a4.6,4.6,0,0,1-9.207,0Z" transform="translate(-1108.546 -948.081)" fill="none" stroke="#000" stroke-miterlimit="10" stroke-width="2"/>
        <path id="Path_60" data-name="Path 60" d="M1113.554,953.514a5.03,5.03,0,0,1-5.024-5.025.422.422,0,0,1,.422-.423h9.207a.421.421,0,0,1,.421.423A5.031,5.031,0,0,1,1113.554,953.514Zm-4.159-4.6a4.181,4.181,0,0,0,8.32,0Z" transform="translate(-1108.53 -948.066)" fill="none" stroke="#000" stroke-miterlimit="10" stroke-width="2"/>
      </g>
      <g id="Group_53" data-name="Group 53" transform="translate(46.366 19.872)">
        <path id="Path_61" data-name="Path 61" d="M1099.083,948.5a4.6,4.6,0,0,1-9.208,0Z" transform="translate(-1089.452 -948.081)" fill="none" stroke="#000" stroke-miterlimit="10" stroke-width="2"/>
        <path id="Path_62" data-name="Path 62" d="M1094.463,953.514a5.031,5.031,0,0,1-5.026-5.025.422.422,0,0,1,.422-.423h9.208a.422.422,0,0,1,.422.423A5.031,5.031,0,0,1,1094.463,953.514Zm-4.16-4.6a4.182,4.182,0,0,0,8.321,0Z" transform="translate(-1089.437 -948.066)" fill="none" stroke="#000" stroke-miterlimit="10" stroke-width="2"/>
      </g>
      <g id="Group_54" data-name="Group 54" transform="translate(55.575 19.872)">
        <path id="Path_63" data-name="Path 63" d="M1108.628,948.5a4.6,4.6,0,0,1-9.207,0Z" transform="translate(-1099 -948.081)" fill="none" stroke="#000" stroke-miterlimit="10" stroke-width="2"/>
        <path id="Path_64" data-name="Path 64" d="M1104.008,953.514a5.03,5.03,0,0,1-5.024-5.025.422.422,0,0,1,.422-.423h9.207a.422.422,0,0,1,.423.423A5.032,5.032,0,0,1,1104.008,953.514Zm-4.159-4.6a4.182,4.182,0,0,0,8.321,0Z" transform="translate(-1098.984 -948.066)" fill="none" stroke="#000" stroke-miterlimit="10" stroke-width="2"/>
      </g>
      <g id="Group_56" data-name="Group 56" transform="translate(62.602)">
        <g id="Group_55" data-name="Group 55">
          <path id="Path_65" data-name="Path 65" d="M1106.708,927.9l2.179,19.872h9.207l-4.02-19.872Z" transform="translate(-1106.286 -927.479)" fill="none" stroke="#000" stroke-miterlimit="10" stroke-width="2"/>
          <path id="Path_66" data-name="Path 66" d="M1118.079,948.179h-9.207a.422.422,0,0,1-.42-.375l-2.179-19.873a.421.421,0,0,1,.42-.468h7.366a.423.423,0,0,1,.414.339l4.02,19.872a.421.421,0,0,1-.414.505Zm-8.828-.844h8.312l-3.85-19.028h-6.549Z" transform="translate(-1106.27 -927.463)" fill="none" stroke="#000" stroke-miterlimit="10" stroke-width="2"/>
        </g>
      </g>
      <g id="Group_58" data-name="Group 58" transform="translate(45.713)">
        <g id="Group_57" data-name="Group 57">
          <path id="Path_67" data-name="Path 67" d="M1099.043,948.179h-9.207a.422.422,0,0,1-.422-.4l-.654-19.872a.422.422,0,0,1,.116-.312.417.417,0,0,1,.306-.132h8.776a.422.422,0,0,1,.422.417l1.085,19.873a.419.419,0,0,1-.422.426Zm-8.807-.844h8.38l-1.075-19.028h-7.912Z" transform="translate(-1088.759 -927.463)" fill="none" stroke="#000" stroke-miterlimit="10" stroke-width="2"/>
        </g>
      </g>
      <g id="Group_60" data-name="Group 60" transform="translate(54.61)">
        <g id="Group_59" data-name="Group 59">
          <path id="Path_68" data-name="Path 68" d="M1108.578,948.179h-9.207a.422.422,0,0,1-.422-.4l-.965-19.872a.424.424,0,0,1,.422-.443h7.992a.422.422,0,0,1,.419.376L1109,947.711a.421.421,0,0,1-.419.468Zm-8.8-.844h8.334l-2.086-19.028h-7.171Z" transform="translate(-1097.984 -927.463)" fill="none" stroke="#000" stroke-miterlimit="10" stroke-width="2"/>
        </g>
      </g>
      <g id="Group_62" data-name="Group 62" transform="translate(69.968)">
        <g id="Group_61" data-name="Group 61">
          <path id="Path_69" data-name="Path 69" d="M1127.681,948.179h-9.332a.421.421,0,0,1-.414-.338l-4.021-19.873a.423.423,0,0,1,.415-.505h7.678a.422.422,0,0,1,.406.306l5.674,19.873a.422.422,0,0,1-.406.537Zm-8.986-.844h8.427l-5.433-19.028h-6.843Z" transform="translate(-1113.906 -927.463)" fill="none" stroke="#000" stroke-miterlimit="10" stroke-width="2"/>
        </g>
      </g>
      <g id="Group_63" data-name="Group 63" transform="translate(36.954)">
        <path id="Path_70" data-name="Path 70" d="M1080.688,927.9h8.063l.573,19.872h-9.207Z" transform="translate(-1079.694 -927.479)" fill="none" stroke="#000" stroke-miterlimit="10" stroke-width="2"/>
        <path id="Path_71" data-name="Path 71" d="M1089.317,948.179H1080.1a.419.419,0,0,1-.3-.127.424.424,0,0,1-.12-.307l.571-19.872a.422.422,0,0,1,.422-.41h8.063a.422.422,0,0,1,.422.41l.57,19.788a.4.4,0,0,1,.011.1A.421.421,0,0,1,1089.317,948.179Zm-8.781-.844h8.338l-.549-19.028h-7.243Z" transform="translate(-1079.679 -927.463)" fill="none" stroke="#000" stroke-miterlimit="10" stroke-width="2"/>
      </g>
    </g>
    <path id="Path_72" data-name="Path 72" d="M1124.466,989.049h-83.007a.428.428,0,0,1-.449-.4V984.86a.428.428,0,0,1,.449-.4h83.007a.428.428,0,0,1,.448.4v3.785A.428.428,0,0,1,1124.466,989.049Z" transform="translate(-1041.011 -929.484)" fill="none" stroke="#000" stroke-width="1"/>
  </g>
</svg>
