<svg xmlns="http://www.w3.org/2000/svg" width="52.908" height="23.279" viewBox="0 0 52.908 23.279">
  <g id="noun_contact_2334153" transform="translate(0 0)">
    <g id="Group_1947" data-name="Group 1947" transform="translate(0 0)">
      <path id="Path_1142" data-name="Path 1142" d="M21.881,47a1.314,1.314,0,0,0-.891.39,2.208,2.208,0,0,0,0,2.506,1.108,1.108,0,0,0,.891.39,1.221,1.221,0,0,0,.947-.39h0a1.89,1.89,0,0,0,.39-1.225,1.768,1.768,0,0,0-.39-1.281A1.221,1.221,0,0,0,21.881,47Z" transform="translate(-10.52 -37.031)" fill="#2d2234"/>
      <path id="Path_1143" data-name="Path 1143" d="M51.509,29.1H6.4A3.91,3.91,0,0,0,2.5,33V48.481a3.91,3.91,0,0,0,3.9,3.9H51.509a3.91,3.91,0,0,0,3.9-3.9V33A3.91,3.91,0,0,0,51.509,29.1ZM20.21,40.907v.446a4.117,4.117,0,0,1-.278,1.058,3.834,3.834,0,0,1-.613.724,3.551,3.551,0,0,1-.78.446,2.235,2.235,0,0,1-.835.167,2.784,2.784,0,0,1-1.281-.223,2.725,2.725,0,0,1-.724-.446l-.111-.223-.111.167a.671.671,0,0,1-.278.278,1,1,0,0,1-.39.278,1.331,1.331,0,0,1-.5.167,3.442,3.442,0,0,1-.835.056,2.039,2.039,0,0,1-1-.223,2.927,2.927,0,0,1-.78-.613,2.827,2.827,0,0,1-.5-1,6.1,6.1,0,0,1-.111-1.225,4.346,4.346,0,0,1,.167-1.337,2.827,2.827,0,0,1,.5-1,1.674,1.674,0,0,1,.78-.613,1.907,1.907,0,0,1,1-.223,1.7,1.7,0,0,1,.947.167,1.921,1.921,0,0,1,.5.446l.278.39v-.613c0-.056,0-.167.056-.167.111-.056.167-.111.223-.111h1c.056,0,.167,0,.167.056s0,.111,0,.223V41.3a.962.962,0,0,0,.278.724,1.169,1.169,0,0,0,1.392,0,1.342,1.342,0,0,0,.223-.835,5.1,5.1,0,0,0,.056-.891,4.5,4.5,0,0,0-.056-.835,5.276,5.276,0,0,0-.39-1.615,2.844,2.844,0,0,0-.835-1.17,3.575,3.575,0,0,0-1.392-.668,7.879,7.879,0,0,0-2.172-.223,7,7,0,0,0-1.838.278,6.7,6.7,0,0,0-1.392.724,3.967,3.967,0,0,0-.835,1.225,5.508,5.508,0,0,0-.39,1.448,2.088,2.088,0,0,0-.056.613v1.448a2.088,2.088,0,0,0,.056.613,4.611,4.611,0,0,0,.39,1.5,2.736,2.736,0,0,0,.891,1.17,3.44,3.44,0,0,0,1.337.724,6.157,6.157,0,0,0,1.838.223,9.062,9.062,0,0,0,1.337-.056,2.949,2.949,0,0,0,.891-.223,1.565,1.565,0,0,1,1.225.056l.111.056a.568.568,0,0,1,.278.446.467.467,0,0,1-.334.446,8.57,8.57,0,0,1-1.559.5,8.134,8.134,0,0,1-2,.167,6.512,6.512,0,0,1-2.506-.446,5.085,5.085,0,0,1-1.838-1.114A4.019,4.019,0,0,1,8.292,43.97a6.6,6.6,0,0,1-.5-2V39.793a1.717,1.717,0,0,1,.056-.557,5.537,5.537,0,0,1,.446-1.894,4.863,4.863,0,0,1,1.114-1.671,5.13,5.13,0,0,1,1.782-1.114,8.067,8.067,0,0,1,2.618-.446,9.4,9.4,0,0,1,2.952.446,5.015,5.015,0,0,1,1.894,1.114,3.567,3.567,0,0,1,1.058,1.615,8.633,8.633,0,0,1,.39,1.949v1A1.656,1.656,0,0,1,20.21,40.907Zm32.858,7.574a1.557,1.557,0,0,1-1.559,1.559H25.557V31.383H51.509a1.557,1.557,0,0,1,1.559,1.559Z" transform="translate(-2.5 -29.1)" fill="#2d2234"/>
      <path id="Path_1144" data-name="Path 1144" d="M64.628,44.243l5.792-4.9a1.184,1.184,0,0,0-1.559-1.782l-9.3,7.908L50.2,37.56a1.184,1.184,0,1,0-1.559,1.782l5.792,4.9-5.848,5.179a1.214,1.214,0,0,0-.111,1.671,1.108,1.108,0,0,0,.891.39,1.331,1.331,0,0,0,.78-.278l6.07-5.4,2.506,2.116a1.231,1.231,0,0,0,1.559,0L62.79,45.8l6.07,5.4a1.042,1.042,0,0,0,.78.278,1.108,1.108,0,0,0,.891-.39,1.163,1.163,0,0,0-.111-1.671Z" transform="translate(-22.748 -32.714)" fill="#2d2234"/>
    </g>
  </g>
</svg>
