<svg xmlns="http://www.w3.org/2000/svg" width="255.5" height="222.114" viewBox="0 0 255.5 222.114">
  <g id="Group_4691" data-name="Group 4691" transform="translate(-514.542 -716.4)">
    <g id="Group_4608" data-name="Group 4608" transform="translate(684.13 806.88)">
      <g id="Group_4591" data-name="Group 4591" transform="translate(10.761 10.4)" opacity="0.35">
        <path id="Path_7829" data-name="Path 7829" d="M2636.514,1986.3l-41.79-7.249a7.928,7.928,0,0,1-6.456-9.166l14.9-85.9a7.928,7.928,0,0,1,9.166-6.456l41.791,7.249a7.927,7.927,0,0,1,6.456,9.166l-14.9,85.9A7.927,7.927,0,0,1,2636.514,1986.3Z" transform="translate(-2587.933 -1877.188)" fill="#262f6a"/>
        <path id="Path_7830" data-name="Path 7830" d="M2635.61,1984.342a8.239,8.239,0,0,1-1.41-.122l-41.79-7.249a8.154,8.154,0,0,1-6.633-9.417l14.9-85.9a8.145,8.145,0,0,1,9.417-6.633l41.791,7.248a8.154,8.154,0,0,1,6.634,9.417l-14.9,85.9a8.15,8.15,0,0,1-8.008,6.755Zm-26.925-109.009a7.715,7.715,0,0,0-7.58,6.394l-14.9,85.9a7.719,7.719,0,0,0,6.279,8.914l41.79,7.248a7.71,7.71,0,0,0,8.914-6.279l14.9-85.9a7.719,7.719,0,0,0-6.278-8.914l-41.791-7.248A7.808,7.808,0,0,0,2608.685,1875.332Z" transform="translate(-2585.656 -1874.897)" fill="#000072"/>
      </g>
      <g id="Group_4592" data-name="Group 4592" transform="translate(1.306 1.307)">
        <path id="Path_7831" data-name="Path 7831" d="M2527.942,1881.87l-41.79-7.248a7.928,7.928,0,0,1-6.457-9.166l14.9-85.9a7.928,7.928,0,0,1,9.166-6.456l41.79,7.249a7.927,7.927,0,0,1,6.456,9.165l-14.9,85.9A7.927,7.927,0,0,1,2527.942,1881.87Z" transform="translate(-2479.36 -1772.762)" fill="#d2e7f9"/>
        <path id="Path_7832" data-name="Path 7832" d="M2527.023,1879.917a8.163,8.163,0,0,1-1.4-.121l-41.79-7.249a8.154,8.154,0,0,1-6.634-9.417l14.9-85.9a8.145,8.145,0,0,1,9.417-6.633l41.791,7.249a8.154,8.154,0,0,1,6.633,9.417l-14.9,85.9A8.159,8.159,0,0,1,2527.023,1879.917Zm-1.321-.549a7.722,7.722,0,0,0,8.914-6.279l14.9-85.9a7.719,7.719,0,0,0-6.279-8.914l-41.79-7.249a7.71,7.71,0,0,0-8.914,6.279l-14.9,85.9a7.719,7.719,0,0,0,6.279,8.914Z" transform="translate(-2477.083 -1770.473)" fill="#000072"/>
      </g>
      <g id="Group_4593" data-name="Group 4593" transform="translate(1.443 10.642)" opacity="0.3">
        <path id="Path_7833" data-name="Path 7833" d="M2550.9,1885.055,2536,1970.96a7.928,7.928,0,0,1-9.166,6.456l-41.791-7.249a7.938,7.938,0,0,1-6.39-6.087,7.929,7.929,0,0,0,3.818,1.8l41.791,7.249a7.927,7.927,0,0,0,9.166-6.456l14.9-85.905a7.915,7.915,0,0,0-.066-3.079A7.944,7.944,0,0,1,2550.9,1885.055Z" transform="translate(-2478.65 -1877.686)" fill="#000072"/>
      </g>
      <g id="Group_4594" data-name="Group 4594" transform="translate(1.525 1.525)" opacity="0.55">
        <path id="Path_7834" data-name="Path 7834" d="M2551.825,1785.923a7.949,7.949,0,0,0-3.315-1.4l-41.79-7.249a7.928,7.928,0,0,0-9.166,6.456l-14.9,85.905a7.928,7.928,0,0,0,.2,3.594,7.94,7.94,0,0,1-3.141-7.763l14.9-85.905a7.927,7.927,0,0,1,9.166-6.456l41.79,7.248A7.939,7.939,0,0,1,2551.825,1785.923Z" transform="translate(-2479.599 -1772.985)" fill="#fff"/>
      </g>
      <g id="Group_4595" data-name="Group 4595">
        <path id="Path_7835" data-name="Path 7835" d="M2513.329,1867.525a9.474,9.474,0,0,1-1.619-.14h0l-41.79-7.249a9.462,9.462,0,0,1-7.7-10.927l14.9-85.9a9.451,9.451,0,0,1,10.927-7.7l41.791,7.249a9.463,9.463,0,0,1,7.7,10.927l-14.9,85.9A9.468,9.468,0,0,1,2513.329,1867.525Zm-1.1-3.142a6.412,6.412,0,0,0,7.4-5.216l14.9-85.9a6.411,6.411,0,0,0-5.215-7.4l-41.79-7.249a6.4,6.4,0,0,0-7.4,5.215l-14.9,85.9a6.412,6.412,0,0,0,5.215,7.4l41.79,7.249Z" transform="translate(-2462.083 -1755.469)" fill="#000072"/>
      </g>
      <g id="Group_4596" data-name="Group 4596" transform="translate(9.467 13.107)">
        <rect id="Rectangle_1581" data-name="Rectangle 1581" width="44.843" height="76.18" rx="22.422" transform="translate(13.019 0) rotate(9.84)" fill="#262f6a"/>
        <path id="Path_7836" data-name="Path 7836" d="M2615.19,1991.128a3.224,3.224,0,0,1-.556-.048l-38.215-6.628a3.25,3.25,0,0,1-2.644-3.753l11.984-69.091a3.245,3.245,0,0,1,3.753-2.644l38.215,6.628a3.251,3.251,0,0,1,2.644,3.754l-11.984,69.09A3.252,3.252,0,0,1,2615.19,1991.128Zm-.482-.476a2.817,2.817,0,0,0,3.25-2.29l11.984-69.091a2.815,2.815,0,0,0-2.29-3.25l-38.215-6.628a2.811,2.811,0,0,0-3.25,2.29l-11.984,69.091a2.815,2.815,0,0,0,2.289,3.25Z" transform="translate(-2573.472 -1908.661)" fill="#000072"/>
      </g>
      <g id="Group_4597" data-name="Group 4597" transform="translate(10.231 13.995)">
        <path id="Path_7837" data-name="Path 7837" d="M2635.789,1926.359l-11.983,69.089a3.039,3.039,0,0,1-3.5,2.467l-38.216-6.629a3.029,3.029,0,0,1-2.467-3.5l11.984-69.09a3.029,3.029,0,0,1,3.5-2.467l38.216,6.629A3.029,3.029,0,0,1,2635.789,1926.359Z" transform="translate(-2579.575 -1916.182)" fill="#19aff9"/>
      </g>
      <g id="Group_4598" data-name="Group 4598" transform="translate(25.732 94.346)">
        <circle id="Ellipse_48" data-name="Ellipse 48" cx="3.266" cy="3.266" r="3.266" transform="translate(0 4.619) rotate(-45)" fill="#000072"/>
      </g>
      <g id="Group_4599" data-name="Group 4599" transform="translate(21.807 25.407)" opacity="0.5">
        <path id="Path_7838" data-name="Path 7838" d="M2739.566,2072.079l-25.295-4.387a2.113,2.113,0,0,1-1.721-2.444l2.819-16.253a2.114,2.114,0,0,1,2.444-1.722l25.294,4.387a2.114,2.114,0,0,1,1.722,2.444l-2.82,16.253A2.113,2.113,0,0,1,2739.566,2072.079Z" transform="translate(-2712.519 -2047.242)" fill="#fff"/>
      </g>
      <g id="Group_4600" data-name="Group 4600" transform="translate(24.699 17.779)" opacity="0.5">
        <circle id="Ellipse_49" data-name="Ellipse 49" cx="2.557" cy="2.557" r="2.557" transform="matrix(0.818, -0.576, 0.576, 0.818, 0, 2.945)" fill="#fff"/>
      </g>
      <g id="Group_4601" data-name="Group 4601" transform="translate(15.919 59.355)" opacity="0.5">
        <path id="Path_7839" data-name="Path 7839" d="M2671.945,2461.936l-25.294-4.387a2.114,2.114,0,0,1-1.721-2.444l2.82-16.253a2.113,2.113,0,0,1,2.443-1.721l25.294,4.387a2.114,2.114,0,0,1,1.721,2.444l-2.819,16.254A2.113,2.113,0,0,1,2671.945,2461.936Z" transform="translate(-2644.898 -2437.099)" fill="#fff"/>
      </g>
      <g id="Group_4602" data-name="Group 4602" transform="translate(18.811 51.727)" opacity="0.5">
        <circle id="Ellipse_50" data-name="Ellipse 50" cx="2.557" cy="2.557" r="2.557" transform="matrix(0.818, -0.576, 0.576, 0.818, 0, 2.945)" fill="#fff"/>
      </g>
      <g id="Group_4603" data-name="Group 4603" transform="translate(20.695 13.995)" opacity="0.15">
        <path id="Path_7840" data-name="Path 7840" d="M2737.993,1969.621l-4.48,25.828a3,3,0,0,1-1.4,2.063l-32.362-69.8,1.564-9.019a3.029,3.029,0,0,1,3.5-2.467l9.161,1.589Z" transform="translate(-2699.746 -1916.182)" fill="#fff"/>
      </g>
      <g id="Group_4604" data-name="Group 4604" transform="translate(42.209 16.892)" opacity="0.15">
        <path id="Path_7841" data-name="Path 7841" d="M2967.927,1974.691l-2.567,14.8-18.556-40.029,10.249,1.778Z" transform="translate(-2946.804 -1949.459)" fill="#fff"/>
      </g>
      <g id="Group_4605" data-name="Group 4605" transform="translate(13.754 50.75)" opacity="0.15">
        <path id="Path_7842" data-name="Path 7842" d="M2642.245,2380.655l-10.256-1.779-11.96-25.8,2.567-14.8Z" transform="translate(-2620.029 -2338.277)" fill="#fff"/>
      </g>
      <g id="Group_4606" data-name="Group 4606" transform="translate(8.497 12.136)">
        <path id="Path_7843" data-name="Path 7843" d="M2602.346,1979.5a4.44,4.44,0,0,1-.766-.066h0l-38.215-6.628a4.477,4.477,0,0,1-3.641-5.17l11.983-69.091a4.471,4.471,0,0,1,5.17-3.641l38.215,6.628a4.477,4.477,0,0,1,3.641,5.17l-11.983,69.091A4.48,4.48,0,0,1,2602.346,1979.5Zm-.273-2.909a1.588,1.588,0,0,0,1.834-1.292l11.983-69.091a1.588,1.588,0,0,0-1.292-1.834l-38.215-6.628a1.586,1.586,0,0,0-1.833,1.292l-11.984,69.091a1.588,1.588,0,0,0,1.292,1.834l38.215,6.628Z" transform="translate(-2559.657 -1894.839)" fill="#000072"/>
      </g>
      <g id="Group_4607" data-name="Group 4607" transform="translate(39.604 10.108)">
        <path id="Path_7844" data-name="Path 7844" d="M2927.478,1875.373a1.1,1.1,0,0,1-.187-.016l-9.494-1.647a1.088,1.088,0,1,1,.372-2.144l9.494,1.646a1.088,1.088,0,0,1-.185,2.161Z" transform="translate(-2916.894 -1871.549)" fill="#000072"/>
      </g>
    </g>
    <g id="Group_4625" data-name="Group 4625" transform="translate(672.999 716.4)">
      <g id="Group_4609" data-name="Group 4609" transform="translate(0 0)" opacity="0.3">
        <ellipse id="Ellipse_51" data-name="Ellipse 51" cx="31.267" cy="39.574" rx="31.267" ry="39.574" transform="translate(0 57.783) rotate(-67.524)" fill="#000072"/>
      </g>
      <g id="Group_4610" data-name="Group 4610" transform="translate(45.861 48.535)">
        <path id="Path_7845" data-name="Path 7845" d="M2872.659,1277.685l8.868,9.954a5.27,5.27,0,1,1-7.87,7.012l-8.868-9.954a29.244,29.244,0,0,0,7.87-7.012Z" transform="translate(-2864.453 -1277.345)" fill="#fff"/>
        <path id="Path_7846" data-name="Path 7846" d="M2874.073,1293.068a5.483,5.483,0,0,1-4.106-1.838l-9.043-10.15.224-.135a29.017,29.017,0,0,0,7.811-6.959l.16-.207,9.042,10.149a5.485,5.485,0,0,1-4.089,9.14Zm-12.476-11.887,8.7,9.759a5.052,5.052,0,1,0,7.544-6.722l-8.695-9.76a29.51,29.51,0,0,1-7.545,6.722Z" transform="translate(-2860.924 -1273.779)" fill="#000072"/>
      </g>
      <g id="Group_4611" data-name="Group 4611" transform="translate(45.861 48.535)" opacity="0.3">
        <path id="Path_7847" data-name="Path 7847" d="M2872.659,1277.685l5.607,6.293a9.124,9.124,0,0,0-5.544,9.622l-7.932-8.9a29.244,29.244,0,0,0,7.87-7.012Z" transform="translate(-2864.453 -1277.345)" fill="#262f6a"/>
        <path id="Path_7848" data-name="Path 7848" d="M2869.5,1290.709l-8.578-9.629.224-.135a29.017,29.017,0,0,0,7.811-6.959l.16-.207,5.985,6.718-.283.117a8.9,8.9,0,0,0-5.411,9.393Zm-7.906-9.528,7.317,8.213a9.344,9.344,0,0,1,5.461-9.061l-5.233-5.874a29.51,29.51,0,0,1-7.545,6.722Z" transform="translate(-2860.924 -1273.779)" fill="#000072"/>
      </g>
      <g id="Group_4612" data-name="Group 4612" transform="translate(44.674 47.352)">
        <path id="Path_7849" data-name="Path 7849" d="M2861.625,1281.966a6.787,6.787,0,0,1-5.082-2.275l-8.869-9.954a1.524,1.524,0,0,1,.348-2.317,27.73,27.73,0,0,0,7.457-6.643,1.524,1.524,0,0,1,2.341-.079l8.868,9.954a6.791,6.791,0,0,1-5.064,11.314Zm-10.494-12.931,7.688,8.629a3.746,3.746,0,1,0,5.594-4.984l-7.687-8.629a30.924,30.924,0,0,1-5.594,4.984Z" transform="translate(-2847.289 -1260.188)" fill="#000072"/>
      </g>
      <g id="Group_4613" data-name="Group 4613" transform="translate(4.916 2.917)">
        <path id="Path_7850" data-name="Path 7850" d="M2451.534,777.3a29.316,29.316,0,0,1-19.392,32.144,29.247,29.247,0,0,1-10.418,1.6,29.312,29.312,0,1,1,29.81-33.742Z" transform="translate(-2393.023 -752.202)" fill="#fff"/>
        <path id="Path_7851" data-name="Path 7851" d="M2420.285,808.962q-.438,0-.874-.013a29.156,29.156,0,1,1,.874.013Zm.029-58.632a29.456,29.456,0,0,0-4.47.342,28.971,28.971,0,1,0,4.47-.342Z" transform="translate(-2390.717 -749.895)" fill="#000072"/>
      </g>
      <g id="Group_4614" data-name="Group 4614" transform="translate(7.555 11.183)" opacity="0.3">
        <path id="Path_7852" data-name="Path 7852" d="M2486.859,875.745a29.316,29.316,0,0,1-19.392,32.144,29.246,29.246,0,0,1-10.419,1.6,29.324,29.324,0,0,1-25.112-15.661,29.263,29.263,0,0,0,20.642,9.35,29.244,29.244,0,0,0,10.419-1.6,29.338,29.338,0,0,0,16.385-41.318A29.177,29.177,0,0,1,2486.859,875.745Z" transform="translate(-2430.987 -858.916)" fill="#262f6a"/>
        <path id="Path_7853" data-name="Path 7853" d="M2447.955,895.625q-.438,0-.874-.013a29.5,29.5,0,0,1-25.3-15.778l-.758-1.443,1.11,1.193a29.2,29.2,0,0,0,20.488,9.28,29.013,29.013,0,0,0,10.341-1.586,29.119,29.119,0,0,0,16.264-41.011l-.759-1.445,1.111,1.2a29.529,29.529,0,0,1-21.625,49.605Zm-24.993-14.579a29.065,29.065,0,0,0,24.131,14.131,29.028,29.028,0,0,0,10.342-1.585,29.1,29.1,0,0,0,12.9-46.056,29.535,29.535,0,0,1-47.371,33.51Z" transform="translate(-2421.025 -844.824)" fill="#000072"/>
      </g>
      <g id="Group_4615" data-name="Group 4615" transform="translate(12.14 10.14)">
        <circle id="Ellipse_52" data-name="Ellipse 52" cx="22.316" cy="22.316" r="22.316" fill="#d16913"/>
      </g>
      <g id="Group_4616" data-name="Group 4616" transform="translate(12.135 10.136)" opacity="0.3">
        <path id="Path_7854" data-name="Path 7854" d="M2514.573,842.842A22.3,22.3,0,0,0,2486,875.1a22.315,22.315,0,1,1,28.575-32.256Z" transform="translate(-2473.622 -832.801)" fill="#000072"/>
      </g>
      <g id="Group_4617" data-name="Group 4617" transform="translate(3.61 1.611)">
        <path id="Path_7855" data-name="Path 7855" d="M2406.588,796.581q-.458,0-.914-.014a30.835,30.835,0,1,1,31.363-35.5h0a30.833,30.833,0,0,1-30.449,35.51Zm.026-58.632a28.1,28.1,0,0,0-4.269.327,27.789,27.789,0,1,0,31.68,23.257h0a27.807,27.807,0,0,0-27.411-23.584Z" transform="translate(-2375.713 -734.902)" fill="#000072"/>
      </g>
      <g id="Group_4618" data-name="Group 4618" transform="translate(10.611 8.614)">
        <path id="Path_7856" data-name="Path 7856" d="M2479.911,863.012a23.9,23.9,0,1,1,3.664-.28A24.184,24.184,0,0,1,2479.911,863.012Zm.063-44.64a20.794,20.794,0,1,0,20.54,17.643h0A20.827,20.827,0,0,0,2479.974,818.372Z" transform="translate(-2456.116 -815.324)" fill="#000072"/>
      </g>
      <g id="Group_4619" data-name="Group 4619" transform="translate(33.311 35.169)" opacity="0.3">
        <path id="Path_7857" data-name="Path 7857" d="M2731.227,1120.835c1.658,2.168-.137,6.328-4.011,9.29s-8.358,3.607-10.016,1.438,2.168-2.28,6.042-5.243S2729.569,1118.667,2731.227,1120.835Z" transform="translate(-2716.802 -1120.281)" fill="#fff"/>
      </g>
      <g id="Group_4620" data-name="Group 4620" transform="translate(46.525 26.742)" opacity="0.3">
        <path id="Path_7858" data-name="Path 7858" d="M2870.368,1029.053c-1.17.049-1.752-1.171-1.816-2.7s.413-2.8,1.584-2.845,2.171,1.153,2.235,2.685S2871.538,1029,2870.368,1029.053Z" transform="translate(-2868.546 -1023.503)" fill="#fff"/>
      </g>
      <g id="Group_4621" data-name="Group 4621" transform="translate(28.582 29.152)" opacity="0.3">
        <circle id="Ellipse_53" data-name="Ellipse 53" cx="1.35" cy="1.35" r="1.35" transform="translate(0 2.302) rotate(-58.476)" fill="#000072"/>
      </g>
      <g id="Group_4622" data-name="Group 4622" transform="translate(27.772 34.779)" opacity="0.3">
        <circle id="Ellipse_54" data-name="Ellipse 54" cx="0.856" cy="0.856" r="0.856" transform="matrix(0.592, -0.806, 0.806, 0.592, 0, 1.379)" fill="#000072"/>
      </g>
      <g id="Group_4623" data-name="Group 4623" transform="translate(39.81 23.642)" opacity="0.3">
        <circle id="Ellipse_55" data-name="Ellipse 55" cx="0.856" cy="0.856" r="0.856" transform="matrix(0.928, -0.371, 0.371, 0.928, 0, 0.635)" fill="#000072"/>
      </g>
      <g id="Group_4624" data-name="Group 4624" transform="translate(33.613 32.459)" opacity="0.3">
        <circle id="Ellipse_56" data-name="Ellipse 56" cx="1.114" cy="1.114" r="1.114" transform="translate(0 2.062) rotate(-67.746)" fill="#000072"/>
      </g>
    </g>
    <g id="Group_4671" data-name="Group 4671" transform="translate(514.542 742.898)">
      <g id="Group_4650" data-name="Group 4650">
        <g id="Group_4626" data-name="Group 4626" transform="translate(6.093 6.531)" opacity="0.35">
          <path id="Path_7859" data-name="Path 7859" d="M746.084,1129.768a5.288,5.288,0,0,0-3.558-1.986l-18.451-2.159v-13.974a5.33,5.33,0,0,0-5.324-5.324H697.162l-2.26-6.942a5.33,5.33,0,0,0-6.711-3.414l-31.8,10.355H613.586a5.33,5.33,0,0,0-5.323,5.324V1122l-20.068,6.535a5.324,5.324,0,0,0-3.414,6.71l23.482,72.109v51.694a5.33,5.33,0,0,0,5.323,5.324H615.3l-.264,2.259a5.33,5.33,0,0,0,4.669,5.906l10.168,1.189.545,1.672a5.313,5.313,0,0,0,6.71,3.414l9.573-3.117,77.459,9.062a5.405,5.405,0,0,0,.629.036,5.325,5.325,0,0,0,5.277-4.706L733.9,1247.3l3.225-1.05a5.325,5.325,0,0,0,3.413-6.711l-4.216-12.946,10.869-92.9A5.288,5.288,0,0,0,746.084,1129.768Z" transform="translate(-584.516 -1095.709)" fill="#000072"/>
        </g>
        <g id="Group_4627" data-name="Group 4627" transform="translate(31.791 21.124)">
          <path id="Path_7860" data-name="Path 7860" d="M989.94,1431.977l-104.454-12.22a3.8,3.8,0,0,1-3.332-4.215l17.127-146.4a3.8,3.8,0,0,1,4.215-3.333l104.454,12.22a3.8,3.8,0,0,1,3.332,4.216l-17.127,146.4A3.8,3.8,0,0,1,989.94,1431.977Z" transform="translate(-881.91 -1265.565)" fill="#fff"/>
          <path id="Path_7861" data-name="Path 7861" d="M988.1,1429.946a4.1,4.1,0,0,1-.469-.027L883.177,1417.7a4.017,4.017,0,0,1-3.523-4.457l17.127-146.4a4.017,4.017,0,0,1,4.457-3.523l104.454,12.22a4.022,4.022,0,0,1,3.523,4.458l-17.127,146.4A4.024,4.024,0,0,1,988.1,1429.946Zm-.419-.46a3.584,3.584,0,0,0,3.974-3.141l17.127-146.4a3.586,3.586,0,0,0-3.142-3.974l-104.454-12.22a3.582,3.582,0,0,0-3.974,3.141l-17.127,146.4a3.581,3.581,0,0,0,3.141,3.974Z" transform="translate(-879.626 -1263.291)" fill="#000072"/>
        </g>
        <g id="Group_4628" data-name="Group 4628" transform="translate(32.008 24.399)" opacity="0.35">
          <path id="Path_7862" data-name="Path 7862" d="M1007.358,1317.355l-17.128,146.4a2.346,2.346,0,0,1-.052.3c-.083,0-.161-.013-.244-.022L885.48,1451.821a3.8,3.8,0,0,1-3.335-4.215l17.128-146.4c.013-.1.026-.2.048-.3a2.388,2.388,0,0,1,.248.017l104.454,12.217A3.8,3.8,0,0,1,1007.358,1317.355Z" transform="translate(-882.119 -1300.906)" fill="#000072"/>
        </g>
        <g id="Group_4629" data-name="Group 4629" transform="translate(30.484 19.816)">
          <path id="Path_7863" data-name="Path 7863" d="M974.405,1417.543a5.382,5.382,0,0,1-.622-.036h0l-104.454-12.22a5.323,5.323,0,0,1-4.669-5.906l17.127-146.4a5.323,5.323,0,0,1,5.906-4.669l104.454,12.22a5.33,5.33,0,0,1,4.669,5.906l-17.127,146.4A5.332,5.332,0,0,1,974.405,1417.543Zm-.268-3.063a2.276,2.276,0,0,0,2.525-2l17.127-146.4a2.279,2.279,0,0,0-2-2.525l-104.454-12.22a2.276,2.276,0,0,0-2.525,2l-17.127,146.4a2.275,2.275,0,0,0,2,2.525l104.454,12.22Z" transform="translate(-864.623 -1248.274)" fill="#000072"/>
        </g>
        <g id="Group_4630" data-name="Group 4630" transform="translate(1.305 1.307)">
          <path id="Path_7864" data-name="Path 7864" d="M682.639,1185.77l-7.454,2.43-69.579,22.657-22.967,7.48a3.8,3.8,0,0,1-4.789-2.438l-1.641-5.042-13.789-42.342-30.212-92.773a3.8,3.8,0,0,1,2.438-4.789l27.773-9.043L581,1055.858l53.644-17.468a3.8,3.8,0,0,1,4.789,2.438l4.894,15.029,30.856,94.758,9.888,30.364A3.8,3.8,0,0,1,682.639,1185.77Z" transform="translate(-531.803 -1037.986)" fill="#fff"/>
          <path id="Path_7865" data-name="Path 7865" d="M579.182,1216.471a4.028,4.028,0,0,1-3.818-2.777l-45.642-140.156a4.023,4.023,0,0,1,2.578-5.064l100-32.562a4.026,4.026,0,0,1,5.064,2.577L683,1178.642a4.013,4.013,0,0,1-2.573,5.064h0l-100,32.567A4.027,4.027,0,0,1,579.182,1216.471Zm54.356-180.321a3.563,3.563,0,0,0-1.1.176l-100,32.563a3.587,3.587,0,0,0-2.3,4.515l45.642,140.156a3.584,3.584,0,0,0,4.515,2.3l100-32.567a3.577,3.577,0,0,0,2.294-4.515l-45.637-140.152A3.594,3.594,0,0,0,633.538,1036.151Z" transform="translate(-529.524 -1035.715)" fill="#000072"/>
        </g>
        <g id="Group_4631" data-name="Group 4631" transform="translate(31.703 18.961)" opacity="0.35">
          <path id="Path_7866" data-name="Path 7866" d="M993.885,1335.714V1373.3l-69.58,22.657H899.2l-.283-.871-13.789-42.342-4.005-12.3v-95.685a3.8,3.8,0,0,1,3.8-3.8h78.109Z" transform="translate(-880.901 -1240.738)" fill="#262f6a"/>
          <path id="Path_7867" data-name="Path 7867" d="M922.058,1393.89h-25.3l-.332-1.021-17.8-54.674v-95.72a4.023,4.023,0,0,1,4.019-4.018H960.9l30.916,94.976v37.741Zm-24.985-.435h24.916l69.4-22.6v-37.39l-30.8-94.575H882.638a3.587,3.587,0,0,0-3.583,3.583v95.651Z" transform="translate(-878.619 -1238.456)" fill="#000072"/>
        </g>
        <g id="Group_4632" data-name="Group 4632">
          <path id="Path_7868" data-name="Path 7868" d="M565.5,1204.074a5.333,5.333,0,0,1-5.056-3.678L514.8,1060.242a5.331,5.331,0,0,1,3.413-6.711l100-32.564a5.33,5.33,0,0,1,6.71,3.413l45.641,140.155a5.324,5.324,0,0,1-3.414,6.711l-100,32.564A5.334,5.334,0,0,1,565.5,1204.074Zm54.361-180.321a2.265,2.265,0,0,0-.7.112l-100,32.564a2.279,2.279,0,0,0-1.459,2.869l45.641,140.155a2.275,2.275,0,0,0,2.869,1.459l100-32.564h0a2.276,2.276,0,0,0,1.459-2.869l-45.641-140.155A2.28,2.28,0,0,0,619.862,1023.753Z" transform="translate(-514.542 -1020.705)" fill="#000072"/>
        </g>
        <g id="Group_4633" data-name="Group 4633" transform="translate(25.05 11.924)">
          <rect id="Rectangle_1582" data-name="Rectangle 1582" width="112.766" height="154.998" rx="43.636" transform="translate(0.218 0.218)" fill="#fff"/>
          <path id="Path_7869" data-name="Path 7869" d="M911.4,1313.07H806.236a4.022,4.022,0,0,1-4.017-4.018v-147.4a4.022,4.022,0,0,1,4.017-4.017H911.4a4.022,4.022,0,0,1,4.018,4.017v147.4A4.022,4.022,0,0,1,911.4,1313.07Zm-105.166-155a3.586,3.586,0,0,0-3.582,3.582v147.4a3.586,3.586,0,0,0,3.582,3.582H911.4a3.586,3.586,0,0,0,3.582-3.582v-147.4a3.586,3.586,0,0,0-3.582-3.582Z" transform="translate(-802.219 -1157.636)" fill="#000072"/>
        </g>
        <g id="Group_4634" data-name="Group 4634" transform="translate(23.744 10.617)">
          <path id="Path_7870" data-name="Path 7870" d="M897.709,1300.682H792.543a5.33,5.33,0,0,1-5.323-5.324v-147.4a5.329,5.329,0,0,1,5.323-5.323H897.709a5.33,5.33,0,0,1,5.324,5.323v147.4A5.33,5.33,0,0,1,897.709,1300.682Zm-105.166-155a2.278,2.278,0,0,0-2.276,2.276v147.4a2.278,2.278,0,0,0,2.276,2.276H897.709a2.278,2.278,0,0,0,2.276-2.276v-147.4a2.278,2.278,0,0,0-2.276-2.276Z" transform="translate(-787.219 -1142.636)" fill="#000072"/>
        </g>
        <g id="Group_4635" data-name="Group 4635" transform="translate(66.052 30.265)" opacity="0.3">
          <circle id="Ellipse_57" data-name="Ellipse 57" cx="11.03" cy="11.03" r="11.03" transform="translate(0 15.599) rotate(-45)" fill="#000072"/>
        </g>
        <g id="Group_4636" data-name="Group 4636" transform="translate(60.692 59.87)" opacity="0.3">
          <path id="Path_7871" data-name="Path 7871" d="M1250.646,1725.162h-36.312a2.815,2.815,0,0,1-2.7-3.573c2.069-7.622,10.622-13.333,20.857-13.333s18.788,5.711,20.857,13.333A2.815,2.815,0,0,1,1250.646,1725.162Z" transform="translate(-1211.531 -1708.256)" fill="#000072"/>
        </g>
        <g id="Group_4637" data-name="Group 4637" transform="translate(104.654 86.241)" opacity="0.29">
          <path id="Path_7872" data-name="Path 7872" d="M1723.4,2014.146h-5.49a1.524,1.524,0,0,1,0-3.048h5.49a1.524,1.524,0,1,1,0,3.048Z" transform="translate(-1716.385 -2011.098)" fill="#000072"/>
        </g>
        <g id="Group_4638" data-name="Group 4638" transform="translate(74.47 86.241)" opacity="0.29">
          <path id="Path_7873" data-name="Path 7873" d="M1395.173,2014.146h-23.9a1.524,1.524,0,0,1,0-3.048h23.9a1.524,1.524,0,0,1,0,3.048Z" transform="translate(-1369.751 -2011.098)" fill="#000072"/>
        </g>
        <g id="Group_4639" data-name="Group 4639" transform="translate(69.097 94.192)" opacity="0.29">
          <path id="Path_7874" data-name="Path 7874" d="M1333.474,2105.455h-23.9a1.524,1.524,0,0,1,0-3.048h23.9a1.524,1.524,0,0,1,0,3.048Z" transform="translate(-1308.052 -2102.407)" fill="#000072"/>
        </g>
        <g id="Group_4640" data-name="Group 4640" transform="translate(56.725 113.24)" opacity="0.29">
          <path id="Path_7875" data-name="Path 7875" d="M1191.391,2324.205h-23.9a1.524,1.524,0,1,1,0-3.048h23.9a1.524,1.524,0,1,1,0,3.048Z" transform="translate(-1165.969 -2321.157)" fill="#000072"/>
        </g>
        <g id="Group_4641" data-name="Group 4641" transform="translate(56.725 107.58)" opacity="0.29">
          <path id="Path_7876" data-name="Path 7876" d="M1180.446,2259.205h-12.953a1.524,1.524,0,0,1,0-3.048h12.953a1.524,1.524,0,0,1,0,3.048Z" transform="translate(-1165.969 -2256.157)" fill="#000072"/>
        </g>
        <g id="Group_4642" data-name="Group 4642" transform="translate(56.725 127.028)" opacity="0.29">
          <path id="Path_7877" data-name="Path 7877" d="M1182.078,2482.54h-14.585a1.524,1.524,0,1,1,0-3.048h14.585a1.524,1.524,0,1,1,0,3.048Z" transform="translate(-1165.969 -2479.492)" fill="#000072"/>
        </g>
        <g id="Group_4643" data-name="Group 4643" transform="translate(56.725 132.289)" opacity="0.29">
          <path id="Path_7878" data-name="Path 7878" d="M1202.651,2542.955h-35.158a1.524,1.524,0,1,1,0-3.048h35.158a1.524,1.524,0,1,1,0,3.048Z" transform="translate(-1165.969 -2539.907)" fill="#000072"/>
        </g>
        <g id="Group_4644" data-name="Group 4644" transform="translate(56.725 150.575)" opacity="0.29">
          <path id="Path_7879" data-name="Path 7879" d="M1191.391,2752.955h-23.9a1.524,1.524,0,0,1,0-3.048h23.9a1.524,1.524,0,0,1,0,3.048Z" transform="translate(-1165.969 -2749.907)" fill="#000072"/>
        </g>
        <g id="Group_4645" data-name="Group 4645" transform="translate(46.602 86.241)" opacity="0.29">
          <path id="Path_7880" data-name="Path 7880" d="M1071.488,2014.146h-20.245a1.524,1.524,0,0,1,0-3.048h20.245a1.524,1.524,0,1,1,0,3.048Z" transform="translate(-1049.719 -2011.098)" fill="#000072"/>
        </g>
        <g id="Group_4646" data-name="Group 4646" transform="translate(34.701 104.451)" opacity="0.3">
          <rect id="Rectangle_1583" data-name="Rectangle 1583" width="11.343" height="11.343" rx="5.671" fill="#000072"/>
        </g>
        <g id="Group_4647" data-name="Group 4647" transform="translate(34.701 123.318)" opacity="0.3">
          <rect id="Rectangle_1584" data-name="Rectangle 1584" width="11.343" height="11.343" rx="5.671" fill="#000072"/>
        </g>
        <g id="Group_4648" data-name="Group 4648" transform="translate(34.701 142.185)" opacity="0.3">
          <rect id="Rectangle_1585" data-name="Rectangle 1585" width="11.343" height="11.343" rx="5.671" fill="#000072"/>
        </g>
        <g id="Group_4649" data-name="Group 4649" transform="translate(25.268 55.181)" opacity="0.2">
          <path id="Path_7881" data-name="Path 7881" d="M913.858,1654.406v104.646a3.6,3.6,0,0,1-3.592,3.592H804.719v-.078C863.854,1760.432,900.965,1724.12,913.858,1654.406Z" transform="translate(-804.719 -1654.406)" fill="#000072"/>
        </g>
      </g>
      <g id="Group_4670" data-name="Group 4670" transform="translate(6.718 30.978)">
        <g id="Group_4651" data-name="Group 4651" transform="translate(18.552 1.303)" opacity="0.3">
          <path id="Path_7882" data-name="Path 7882" d="M835.133,1420.169l-5.037,15.278a1.523,1.523,0,0,1-1.445,1.049,1.549,1.549,0,0,1-.479-.078,1.528,1.528,0,0,1-.971-1.924l.536-1.62a3.68,3.68,0,0,1,2.277-6.91l2.225-6.748a2.541,2.541,0,0,0-1.615-3.2l-1.955-.645-21.16,63.976a5.018,5.018,0,0,1-1.4,2.142l-1.371,1.219V1428.72l8.094-24.469a4.619,4.619,0,0,1,2.49-2.743l1.585-4.807a7.678,7.678,0,0,1,14.586,4.8l-1.541,4.676a4.965,4.965,0,0,1,.7,2.477,4.422,4.422,0,0,1-.227,1.393l-.8,2.425,1.951.64a5.587,5.587,0,0,1,3.557,7.053Z" transform="translate(-804.738 -1391.422)" fill="#000072"/>
        </g>
        <g id="Group_4655" data-name="Group 4655" transform="translate(21.174 15.308)">
          <g id="Group_4652" data-name="Group 4652" transform="translate(0.857 0)">
            <path id="Path_7883" data-name="Path 7883" d="M847.374,1572.789a3.444,3.444,0,0,1-.166-1.523l1.74-14.416,11.623,8.715a3.354,3.354,0,0,1,1,1.207C862.5,1570.313,849.211,1575.971,847.374,1572.789Z" transform="translate(-846.967 -1556.45)" fill="#f3f1a5"/>
            <path id="Path_7884" data-name="Path 7884" d="M847.477,1569.74a2.784,2.784,0,0,1-2.57-1.036l-.017-.038a3.678,3.678,0,0,1-.177-1.619l1.786-14.791,11.925,8.94a3.56,3.56,0,0,1,1.066,1.286c.542,2.052-2.952,4.5-6.422,5.93A15.919,15.919,0,0,1,847.477,1569.74Zm-2.183-1.237c.748,1.244,3.87,1.043,7.608-.494,3.405-1.4,6.622-3.7,6.182-5.376a3.148,3.148,0,0,0-.922-1.089l-11.322-8.488-1.7,14.042A3.243,3.243,0,0,0,845.293,1568.5Z" transform="translate(-844.688 -1552.255)" fill="#000072"/>
          </g>
          <g id="Group_4653" data-name="Group 4653" transform="translate(1.757)">
            <path id="Path_7885" data-name="Path 7885" d="M857.934,1563.729l.831-6.88,5.544,4.159A21.783,21.783,0,0,1,857.934,1563.729Z" transform="translate(-857.68 -1556.448)" fill="#5f5a57"/>
            <path id="Path_7886" data-name="Path 7886" d="M855.022,1559.815l.914-7.565,6.1,4.573-.263.17a21.9,21.9,0,0,1-6.443,2.75Zm1.256-6.764-.748,6.192a21.644,21.644,0,0,0,5.738-2.449Z" transform="translate(-855.022 -1552.25)" fill="#000072"/>
          </g>
          <g id="Group_4654" data-name="Group 4654" transform="translate(0 8.936)">
            <path id="Path_7887" data-name="Path 7887" d="M838.48,1664.411c-1.659,0-2.984-.512-3.542-1.819a1.183,1.183,0,1,1,2.191-.9c.319.515,2.868.625,6.684-1a16.445,16.445,0,0,0,4.276-2.552c.855-.761,1.149-1.358,1.065-1.6a1.181,1.181,0,0,1,1.872-1.355l.006.005a1.183,1.183,0,0,1,.29.409c1.187,2.78-2.622,5.576-6.582,7.267A17.126,17.126,0,0,1,838.48,1664.411Z" transform="translate(-834.843 -1654.877)" fill="#000072"/>
          </g>
        </g>
        <g id="Group_4656" data-name="Group 4656" transform="translate(34.932 19.976)">
          <path id="Path_7888" data-name="Path 7888" d="M996.893,1630.96a1.525,1.525,0,0,1-1.448-2l5.035-15.277a2.537,2.537,0,0,0-1.616-3.2l-4.972-1.639a1.524,1.524,0,0,1,.954-2.895l4.972,1.639a5.585,5.585,0,0,1,3.557,7.053l-5.035,15.277A1.525,1.525,0,0,1,996.893,1630.96Z" transform="translate(-992.845 -1605.866)" fill="#000072"/>
        </g>
        <g id="Group_4657" data-name="Group 4657" transform="translate(26.761 1.523)">
          <path id="Path_7889" data-name="Path 7889" d="M910.7,1407.869l-11.69-3.853,1.926-5.845a6.154,6.154,0,0,1,7.771-3.918h0a6.154,6.154,0,0,1,3.919,7.771Z" transform="translate(-899.01 -1393.942)" fill="#4a83ff"/>
        </g>
        <g id="Group_4658" data-name="Group 4658" transform="translate(26.761 1.538)" opacity="0.3">
          <path id="Path_7890" data-name="Path 7890" d="M908.707,1394.412a6.134,6.134,0,0,0-1.61-.3,6.15,6.15,0,0,1,2.046,6.76l-1.926,5.845-8.159-2.689-.047.143,11.69,3.853,1.926-5.845A6.154,6.154,0,0,0,908.707,1394.412Z" transform="translate(-899.01 -1394.116)" fill="#000072"/>
        </g>
        <g id="Group_4659" data-name="Group 4659" transform="translate(26.76 1.522)" opacity="0.51">
          <path id="Path_7891" data-name="Path 7891" d="M911.538,1396.2a6.148,6.148,0,0,0-6.971,4.123l-1.638,4.977-3.934-1.3,1.928-5.848a6.157,6.157,0,0,1,7.771-3.917A6.054,6.054,0,0,1,911.538,1396.2Z" transform="translate(-898.994 -1393.93)" fill="#fff"/>
        </g>
        <g id="Group_4660" data-name="Group 4660" transform="translate(25.237)">
          <path id="Path_7892" data-name="Path 7892" d="M894.723,1393.429a1.534,1.534,0,0,1-.477-.076l-11.69-3.853a1.524,1.524,0,0,1-.97-1.924l1.926-5.844a7.678,7.678,0,0,1,14.584,4.806l-1.926,5.845a1.524,1.524,0,0,1-1.447,1.047Zm-9.765-6.346,8.8,2.9,1.449-4.4a4.63,4.63,0,1,0-8.795-2.9Z" transform="translate(-881.51 -1376.456)" fill="#000072"/>
        </g>
        <g id="Group_4661" data-name="Group 4661" transform="translate(1.525 10.909)">
          <path id="Path_7893" data-name="Path 7893" d="M623.635,1579.129l0,.005a3.443,3.443,0,0,1-.539.615l-10.888,9.67-2.93-14.259a3.334,3.334,0,0,1-.068-.928.1.1,0,0,1,.006-.024,3.086,3.086,0,0,1,.057-.417,3.054,3.054,0,0,1,.106-.4l22.905-69.263c1.8-5.454,16.508-.606,14.7,4.849l-22.92,69.29c-.037.117-.082.224-.13.336l-.006.024A3.171,3.171,0,0,1,623.635,1579.129Z" transform="translate(-609.2 -1501.731)" fill="#ec1c24"/>
        </g>
        <g id="Group_4662" data-name="Group 4662" transform="translate(1.525 81.928)">
          <path id="Path_7894" data-name="Path 7894" d="M623.635,2323.691l0,.005a3.435,3.435,0,0,1-.539.615l-10.888,9.67-2.93-14.259a3.335,3.335,0,0,1-.068-.929.1.1,0,0,1,.006-.024C610.563,2314.816,624.966,2319.735,623.635,2323.691Z" transform="translate(-609.2 -2317.312)" fill="#4a83ff"/>
        </g>
        <g id="Group_4663" data-name="Group 4663" transform="translate(4.53 12.002)" opacity="0.3">
          <path id="Path_7895" data-name="Path 7895" d="M678.492,1520.44l-22.918,69.289a3.2,3.2,0,0,1-.132.333l-.006.025a3.4,3.4,0,0,1-.834,1.127l-10.888,9.674.6-2.518,7.157-10.659c.358-.32-.335.07-.14-.357l.006-.025a3.227,3.227,0,0,0,.132-.333l22.918-69.289a3.45,3.45,0,0,0-.9-3.415C676.723,1515.612,679.313,1517.96,678.492,1520.44Z" transform="translate(-643.713 -1514.292)" fill="#000072"/>
        </g>
        <g id="Group_4664" data-name="Group 4664" transform="translate(1.523 10.911)" opacity="0.51">
          <path id="Path_7896" data-name="Path 7896" d="M639.079,1501.995a3.281,3.281,0,0,0-2.292,2.083l-22.909,69.256a3.431,3.431,0,0,0-.1,1.774l.049,12.267-1.639,2.071-2.931-14.261a3.312,3.312,0,0,1,.1-1.774l22.906-69.261C633.008,1501.885,635.984,1501.394,639.079,1501.995Z" transform="translate(-609.178 -1501.76)" fill="#fff"/>
        </g>
        <g id="Group_4665" data-name="Group 4665" transform="translate(0 9.387)">
          <path id="Path_7897" data-name="Path 7897" d="M596.221,1574.991a1.524,1.524,0,0,1-1.492-1.217l-2.937-14.261a4.914,4.914,0,0,1,.147-2.557l22.909-69.263a5.012,5.012,0,0,1,4.012-3.251c3.9-.81,9.642,1.082,12.293,4.051a5.012,5.012,0,0,1,1.293,5h0l-22.917,69.289a4.974,4.974,0,0,1-1.4,2.142l-10.892,9.679A1.524,1.524,0,0,1,596.221,1574.991Zm24.6-87.69a6.6,6.6,0,0,0-1.34.126c-1.435.3-1.664.994-1.739,1.222l-22.909,69.262a1.875,1.875,0,0,0-.059.976l2.407,11.688,8.914-7.922a1.89,1.89,0,0,0,.537-.824l22.918-69.291h0c.075-.228.3-.923-.672-2.016C627.239,1488.688,623.6,1487.3,620.82,1487.3ZM631,1493.017h0Z" transform="translate(-591.687 -1484.255)" fill="#000072"/>
        </g>
        <g id="Group_4666" data-name="Group 4666" transform="translate(19.954 19.791)">
          <path id="Path_7898" data-name="Path 7898" d="M836.955,1613.057a1.464,1.464,0,0,1-1.389-1.92c.079-.239-.217-.8-1.054-1.475a14.448,14.448,0,0,0-4.326-2.184c-3.843-1.266-6.31-.833-6.5-.256a1.462,1.462,0,0,1-2.778-.916c.3-.9,1.264-2.441,4.384-2.566a19.129,19.129,0,0,1,11.052,3.642c2.434,1.956,2.3,3.765,2,4.67A1.463,1.463,0,0,1,836.955,1613.057Z" transform="translate(-820.835 -1603.733)" fill="#000072"/>
        </g>
        <g id="Group_4667" data-name="Group 4667" transform="translate(36.051 34.484)">
          <path id="Path_7899" data-name="Path 7899" d="M1008.229,1779.655l.255.084,2.308-7-.255-.084a3.686,3.686,0,0,0-4.655,2.347h0A3.686,3.686,0,0,0,1008.229,1779.655Z" transform="translate(-1005.695 -1772.467)" fill="#000072"/>
        </g>
        <g id="Group_4668" data-name="Group 4668" transform="translate(0.075 80.47)">
          <path id="Path_7900" data-name="Path 7900" d="M608.433,2309.872a1.463,1.463,0,0,1-1.384-1.935c.05-.146-.1-.454-.393-.785-1.845-2.113-7.714-4.118-10.466-3.577-.431.085-.741.234-.791.38a1.462,1.462,0,1,1-2.768-.946,3.584,3.584,0,0,1,2.994-2.3c3.776-.742,10.7,1.624,13.234,4.522a3.584,3.584,0,0,1,.958,3.654A1.463,1.463,0,0,1,608.433,2309.872Z" transform="translate(-592.552 -2300.568)" fill="#000072"/>
        </g>
        <g id="Group_4669" data-name="Group 4669" transform="translate(1.793 96.493)">
          <path id="Path_7901" data-name="Path 7901" d="M613.8,2492.238a1.525,1.525,0,0,1-1.447-2l1.525-4.607a1.524,1.524,0,0,1,2.893.958l-1.525,4.607A1.524,1.524,0,0,1,613.8,2492.238Z" transform="translate(-612.273 -2484.583)" fill="#000072"/>
        </g>
      </g>
    </g>
  </g>
</svg>
