<svg xmlns="http://www.w3.org/2000/svg" width="23.035" height="23.033" viewBox="0 0 23.035 23.033">
  <g id="noun_call_2640501" transform="translate(0 0)">
    <g id="Group_1950" data-name="Group 1950" transform="translate(0 0)">
      <g id="Group_1949" data-name="Group 1949">
        <path id="Path_1147" data-name="Path 1147" d="M29.877,26.957,26.661,24.71a2.481,2.481,0,0,0-3.457.615l-.747,1.07a27.642,27.642,0,0,1-3.978-3.341,27.6,27.6,0,0,1-3.341-3.978l1.069-.746a2.486,2.486,0,0,0,.615-3.458l-2.247-3.216a2.485,2.485,0,0,0-2.028-1.073,2.325,2.325,0,0,0-.808.144,4.485,4.485,0,0,0-.836.41l-.444.313a3.4,3.4,0,0,0-.313.28A4.46,4.46,0,0,0,9,13.767c-.926,3.47,1.368,8.717,5.707,13.056,3.644,3.644,8.021,5.907,11.424,5.908h0a6.354,6.354,0,0,0,1.632-.2A4.458,4.458,0,0,0,29.8,31.387a3.3,3.3,0,0,0,.295-.333l.313-.447a4.479,4.479,0,0,0,.4-.814A2.443,2.443,0,0,0,29.877,26.957Zm0,2.492a3.463,3.463,0,0,1-.292.61l-.284.406a2.334,2.334,0,0,1-.2.22,3.477,3.477,0,0,1-1.592.886,5.35,5.35,0,0,1-1.376.168h0c-3.149,0-7.258-2.152-10.722-5.617-4.033-4.033-6.274-9.008-5.449-12.1a3.481,3.481,0,0,1,.886-1.592,2.462,2.462,0,0,1,.2-.183l.4-.284a3.463,3.463,0,0,1,.632-.306,1.329,1.329,0,0,1,.463-.083,1.492,1.492,0,0,1,1.214.649l2.246,3.215a1.492,1.492,0,0,1-.368,2.075l-1.464,1.021a.5.5,0,0,0-.136.671,27.465,27.465,0,0,0,3.738,4.548,27.475,27.475,0,0,0,4.548,3.738A.5.5,0,0,0,23,27.357l1.022-1.464a1.527,1.527,0,0,1,2.074-.368l3.215,2.247A1.45,1.45,0,0,1,29.875,29.448Z" transform="translate(-8.8 -9.698)" fill="#2d2234"/>
        <path id="Path_1148" data-name="Path 1148" d="M39.277,12.413a12.4,12.4,0,0,0-8-3.611.5.5,0,1,0-.062.991A11.418,11.418,0,0,1,41.9,20.473a.5.5,0,0,0,.495.465h.032a.5.5,0,0,0,.464-.526A12.4,12.4,0,0,0,39.277,12.413Z" transform="translate(-19.854 -8.802)" fill="#2d2234"/>
        <path id="Path_1149" data-name="Path 1149" d="M30.842,15.782a8.439,8.439,0,0,1,7.893,7.892.5.5,0,0,0,.495.465h.032a.5.5,0,0,0,.464-.526A9.432,9.432,0,0,0,30.9,14.791a.5.5,0,1,0-.062.991Z" transform="translate(-19.665 -11.817)" fill="#2d2234"/>
        <path id="Path_1150" data-name="Path 1150" d="M30.467,21.77a5.461,5.461,0,0,1,5.107,5.106.5.5,0,0,0,.495.465H36.1a.5.5,0,0,0,.464-.526,6.454,6.454,0,0,0-6.035-6.035.5.5,0,1,0-.062.991Z" transform="translate(-19.476 -14.833)" fill="#2d2234"/>
      </g>
    </g>
  </g>
</svg>
