<svg xmlns="http://www.w3.org/2000/svg" width="31.11" height="36.278" viewBox="0 0 31.11 36.278">
  <path id="Path_24" data-name="Path 24" d="M23.544,4c-3.239,0-5.83,2.326-5.83,5.183v3.887h-5.83a1.3,1.3,0,0,0-1.3,1.16L8,38.846a1.3,1.3,0,0,0,1.3,1.432H37.8a1.3,1.3,0,0,0,1.3-1.432L36.5,14.229a1.3,1.3,0,0,0-1.3-1.16h-5.83V9.183C29.374,6.326,26.783,4,23.544,4ZM20.3,9.183c0-1.432,1.451-2.591,3.239-2.591s3.239,1.16,3.239,2.591v3.887H20.3Zm13.734,6.478,2.319,22.026H10.73l2.319-22.026h4.664v2.591a1.3,1.3,0,0,0,2.591,0V15.661h6.478v2.591a1.3,1.3,0,1,0,2.591,0V15.661Z" transform="translate(-7.989 -4)" fill="#2d2234"/>
</svg>
