<svg xmlns="http://www.w3.org/2000/svg" width="54.813" height="38.869" viewBox="0 0 54.813 38.869">
  <g id="Group_2297" data-name="Group 2297" transform="translate(-1081.257 -936.381)">
    <rect id="Rectangle_18" data-name="Rectangle 18" width="46.419" height="22.535" transform="translate(1085.487 950.07)" fill="none" stroke="#f4fa1e" stroke-miterlimit="10" stroke-width="2"/>
    <g id="Group_64" data-name="Group 64" transform="translate(1082.262 937.381)">
      <g id="Group_38" data-name="Group 38" transform="translate(0.078 12.467)">
        <path id="Path_42" data-name="Path 42" d="M1041.932,948.5a2.889,2.889,0,0,0,5.777,0Z" transform="translate(-1041.667 -948.239)" fill="none" stroke="#f4fa1e" stroke-miterlimit="10" stroke-width="2"/>
        <path id="Path_43" data-name="Path 43" d="M1044.647,951.484a3.156,3.156,0,0,1-3.153-3.153.265.265,0,0,1,.265-.265h5.777a.265.265,0,0,1,.264.265A3.157,3.157,0,0,1,1044.647,951.484Zm-2.61-2.888a2.624,2.624,0,0,0,5.221,0Z" transform="translate(-1041.494 -948.066)" fill="none" stroke="#f4fa1e" stroke-miterlimit="10" stroke-width="2"/>
      </g>
      <g id="Group_39" data-name="Group 39" transform="translate(5.855 12.467)">
        <path id="Path_44" data-name="Path 44" d="M1051.479,948.5a2.888,2.888,0,1,0,5.776,0Z" transform="translate(-1051.214 -948.239)" fill="none" stroke="#f4fa1e" stroke-miterlimit="10" stroke-width="2"/>
        <path id="Path_45" data-name="Path 45" d="M1054.194,951.484a3.156,3.156,0,0,1-3.153-3.153.265.265,0,0,1,.265-.265h5.776a.265.265,0,0,1,.265.265A3.157,3.157,0,0,1,1054.194,951.484Zm-2.61-2.888a2.623,2.623,0,0,0,5.219,0Z" transform="translate(-1051.041 -948.066)" fill="none" stroke="#f4fa1e" stroke-miterlimit="10" stroke-width="2"/>
      </g>
      <g id="Group_40" data-name="Group 40" transform="translate(17.408 12.467)">
        <path id="Path_46" data-name="Path 46" d="M1070.57,948.5a2.888,2.888,0,0,0,5.777,0Z" transform="translate(-1070.306 -948.239)" fill="none" stroke="#f4fa1e" stroke-miterlimit="10" stroke-width="2"/>
        <path id="Path_47" data-name="Path 47" d="M1073.285,951.484a3.156,3.156,0,0,1-3.152-3.153.265.265,0,0,1,.264-.265h5.777a.265.265,0,0,1,.265.265A3.157,3.157,0,0,1,1073.285,951.484Zm-2.609-2.888a2.624,2.624,0,0,0,5.22,0Z" transform="translate(-1070.133 -948.066)" fill="none" stroke="#f4fa1e" stroke-miterlimit="10" stroke-width="2"/>
      </g>
      <g id="Group_41" data-name="Group 41" transform="translate(23.184 12.467)">
        <path id="Path_48" data-name="Path 48" d="M1080.117,948.5a2.888,2.888,0,1,0,5.776,0Z" transform="translate(-1079.852 -948.239)" fill="none" stroke="#f4fa1e" stroke-miterlimit="10" stroke-width="2"/>
        <path id="Path_49" data-name="Path 49" d="M1082.831,951.484a3.156,3.156,0,0,1-3.152-3.153.265.265,0,0,1,.265-.265h5.776a.265.265,0,0,1,.265.265A3.157,3.157,0,0,1,1082.831,951.484Zm-2.609-2.888a2.624,2.624,0,0,0,5.22,0Z" transform="translate(-1079.679 -948.066)" fill="none" stroke="#f4fa1e" stroke-miterlimit="10" stroke-width="2"/>
      </g>
      <g id="Group_42" data-name="Group 42" transform="translate(11.631 12.467)">
        <path id="Path_50" data-name="Path 50" d="M1061.024,948.5a2.888,2.888,0,1,0,5.776,0Z" transform="translate(-1060.759 -948.239)" fill="none" stroke="#f4fa1e" stroke-miterlimit="10" stroke-width="2"/>
        <path id="Path_51" data-name="Path 51" d="M1063.74,951.484a3.157,3.157,0,0,1-3.154-3.153.265.265,0,0,1,.265-.265h5.776a.265.265,0,0,1,.265.265A3.157,3.157,0,0,1,1063.74,951.484Zm-2.61-2.888a2.624,2.624,0,0,0,5.22,0Z" transform="translate(-1060.586 -948.066)" fill="none" stroke="#f4fa1e" stroke-miterlimit="10" stroke-width="2"/>
      </g>
      <g id="Group_44" data-name="Group 44" transform="translate(5.855)">
        <g id="Group_43" data-name="Group 43">
          <path id="Path_52" data-name="Path 52" d="M1058.621,927.9l-1.366,12.467h-5.776L1054,927.9Z" transform="translate(-1051.214 -927.636)" fill="none" stroke="#f4fa1e" stroke-miterlimit="10" stroke-width="2"/>
          <path id="Path_53" data-name="Path 53" d="M1057.082,940.46h-5.776a.264.264,0,0,1-.26-.317l2.522-12.467a.265.265,0,0,1,.26-.212h4.62a.264.264,0,0,1,.263.293l-1.366,12.468A.265.265,0,0,1,1057.082,940.46Zm-5.452-.529h5.215l1.308-11.938h-4.108Z" transform="translate(-1051.041 -927.463)" fill="none" stroke="#f4fa1e" stroke-miterlimit="10" stroke-width="2"/>
        </g>
      </g>
      <g id="Group_46" data-name="Group 46" transform="translate(17.408)">
        <g id="Group_45" data-name="Group 45">
          <path id="Path_54" data-name="Path 54" d="M1076.174,940.46H1070.4a.264.264,0,0,1-.264-.267l.681-12.468a.265.265,0,0,1,.265-.261h5.505a.264.264,0,0,1,.193.083.261.261,0,0,1,.072.2l-.41,12.467A.265.265,0,0,1,1076.174,940.46Zm-5.509-.529h5.258l.381-11.938h-4.964Z" transform="translate(-1070.133 -927.463)" fill="none" stroke="#f4fa1e" stroke-miterlimit="10" stroke-width="2"/>
        </g>
      </g>
      <g id="Group_48" data-name="Group 48" transform="translate(11.631)">
        <g id="Group_47" data-name="Group 47">
          <path id="Path_55" data-name="Path 55" d="M1066.628,940.46h-5.776a.264.264,0,0,1-.263-.294l1.366-12.467a.264.264,0,0,1,.263-.236h5.015a.264.264,0,0,1,.264.278l-.6,12.467A.265.265,0,0,1,1066.628,940.46Zm-5.481-.529h5.229l.58-11.938h-4.5Z" transform="translate(-1060.586 -927.463)" fill="none" stroke="#f4fa1e" stroke-miterlimit="10" stroke-width="2"/>
        </g>
      </g>
      <g id="Group_50" data-name="Group 50">
        <g id="Group_49" data-name="Group 49">
          <path id="Path_56" data-name="Path 56" d="M1047.486,940.46h-5.855a.264.264,0,0,1-.254-.337l3.56-12.468a.264.264,0,0,1,.255-.192h4.817a.264.264,0,0,1,.26.317l-2.523,12.468A.263.263,0,0,1,1047.486,940.46Zm-5.5-.529h5.287l2.415-11.938h-4.294Z" transform="translate(-1041.366 -927.463)" fill="none" stroke="#f4fa1e" stroke-miterlimit="10" stroke-width="2"/>
        </g>
      </g>
      <g id="Group_51" data-name="Group 51" transform="translate(46.418 12.467)">
        <path id="Path_57" data-name="Path 57" d="M1124.29,948.5a2.888,2.888,0,1,1-5.776,0Z" transform="translate(-1118.248 -948.239)" fill="none" stroke="#f4fa1e" stroke-miterlimit="10" stroke-width="2"/>
        <path id="Path_58" data-name="Path 58" d="M1121.228,951.484a3.156,3.156,0,0,1-3.153-3.153.265.265,0,0,1,.265-.265h5.776a.264.264,0,0,1,.265.265A3.156,3.156,0,0,1,1121.228,951.484Zm-2.61-2.888a2.624,2.624,0,0,0,5.22,0Z" transform="translate(-1118.075 -948.066)" fill="none" stroke="#f4fa1e" stroke-miterlimit="10" stroke-width="2"/>
      </g>
      <g id="Group_52" data-name="Group 52" transform="translate(40.642 12.467)">
        <path id="Path_59" data-name="Path 59" d="M1114.744,948.5a2.888,2.888,0,1,1-5.776,0Z" transform="translate(-1108.703 -948.239)" fill="none" stroke="#f4fa1e" stroke-miterlimit="10" stroke-width="2"/>
        <path id="Path_60" data-name="Path 60" d="M1111.682,951.484a3.156,3.156,0,0,1-3.152-3.153.264.264,0,0,1,.264-.265h5.776a.265.265,0,0,1,.264.265A3.156,3.156,0,0,1,1111.682,951.484Zm-2.609-2.888a2.623,2.623,0,0,0,5.22,0Z" transform="translate(-1108.53 -948.066)" fill="none" stroke="#f4fa1e" stroke-miterlimit="10" stroke-width="2"/>
      </g>
      <g id="Group_53" data-name="Group 53" transform="translate(29.089 12.467)">
        <path id="Path_61" data-name="Path 61" d="M1095.651,948.5a2.888,2.888,0,1,1-5.776,0Z" transform="translate(-1089.61 -948.239)" fill="none" stroke="#f4fa1e" stroke-miterlimit="10" stroke-width="2"/>
        <path id="Path_62" data-name="Path 62" d="M1092.591,951.484a3.157,3.157,0,0,1-3.153-3.153.265.265,0,0,1,.265-.265h5.776a.265.265,0,0,1,.265.265A3.157,3.157,0,0,1,1092.591,951.484Zm-2.61-2.888a2.624,2.624,0,0,0,5.22,0Z" transform="translate(-1089.437 -948.066)" fill="none" stroke="#f4fa1e" stroke-miterlimit="10" stroke-width="2"/>
      </g>
      <g id="Group_54" data-name="Group 54" transform="translate(34.866 12.467)">
        <path id="Path_63" data-name="Path 63" d="M1105.2,948.5a2.888,2.888,0,1,1-5.776,0Z" transform="translate(-1099.157 -948.239)" fill="none" stroke="#f4fa1e" stroke-miterlimit="10" stroke-width="2"/>
        <path id="Path_64" data-name="Path 64" d="M1102.136,951.484a3.156,3.156,0,0,1-3.152-3.153.265.265,0,0,1,.264-.265h5.776a.265.265,0,0,1,.265.265A3.157,3.157,0,0,1,1102.136,951.484Zm-2.609-2.888a2.624,2.624,0,0,0,5.22,0Z" transform="translate(-1098.984 -948.066)" fill="none" stroke="#f4fa1e" stroke-miterlimit="10" stroke-width="2"/>
      </g>
      <g id="Group_56" data-name="Group 56" transform="translate(39.275)">
        <g id="Group_55" data-name="Group 55">
          <path id="Path_65" data-name="Path 65" d="M1106.708,927.9l1.367,12.467h5.776l-2.522-12.467Z" transform="translate(-1106.443 -927.636)" fill="none" stroke="#f4fa1e" stroke-miterlimit="10" stroke-width="2"/>
          <path id="Path_66" data-name="Path 66" d="M1113.679,940.46H1107.9a.265.265,0,0,1-.263-.235l-1.367-12.468a.264.264,0,0,1,.263-.293h4.621a.265.265,0,0,1,.26.212l2.522,12.467a.264.264,0,0,1-.26.317Zm-5.539-.529h5.215l-2.416-11.938h-4.109Z" transform="translate(-1106.27 -927.463)" fill="none" stroke="#f4fa1e" stroke-miterlimit="10" stroke-width="2"/>
        </g>
      </g>
      <g id="Group_58" data-name="Group 58" transform="translate(28.679)">
        <g id="Group_57" data-name="Group 57">
          <path id="Path_67" data-name="Path 67" d="M1095.211,940.46h-5.776a.264.264,0,0,1-.265-.251l-.41-12.467a.265.265,0,0,1,.073-.2.261.261,0,0,1,.192-.083h5.506a.265.265,0,0,1,.265.261l.681,12.468a.263.263,0,0,1-.265.267Zm-5.525-.529h5.257l-.675-11.938H1089.3Z" transform="translate(-1088.76 -927.463)" fill="none" stroke="#f4fa1e" stroke-miterlimit="10" stroke-width="2"/>
        </g>
      </g>
      <g id="Group_60" data-name="Group 60" transform="translate(34.26)">
        <g id="Group_59" data-name="Group 59">
          <path id="Path_68" data-name="Path 68" d="M1104.63,940.46h-5.777a.265.265,0,0,1-.264-.252l-.605-12.467a.266.266,0,0,1,.265-.278h5.014a.264.264,0,0,1,.263.236l1.367,12.467a.263.263,0,0,1-.066.206A.266.266,0,0,1,1104.63,940.46Zm-5.524-.529h5.228l-1.309-11.938h-4.5Z" transform="translate(-1097.984 -927.463)" fill="none" stroke="#f4fa1e" stroke-miterlimit="10" stroke-width="2"/>
        </g>
      </g>
      <g id="Group_62" data-name="Group 62" transform="translate(43.896)">
        <g id="Group_61" data-name="Group 61">
          <path id="Path_69" data-name="Path 69" d="M1122.548,940.46h-5.854a.265.265,0,0,1-.26-.212l-2.523-12.468a.265.265,0,0,1,.26-.317h4.817a.265.265,0,0,1,.255.192l3.56,12.468a.265.265,0,0,1-.255.337Zm-5.638-.529h5.287l-3.409-11.938H1114.5Z" transform="translate(-1113.906 -927.463)" fill="none" stroke="#f4fa1e" stroke-miterlimit="10" stroke-width="2"/>
        </g>
      </g>
      <g id="Group_63" data-name="Group 63" transform="translate(23.184)">
        <path id="Path_70" data-name="Path 70" d="M1080.475,927.9h5.059l.359,12.467h-5.776Z" transform="translate(-1079.852 -927.636)" fill="none" stroke="#f4fa1e" stroke-miterlimit="10" stroke-width="2"/>
        <path id="Path_71" data-name="Path 71" d="M1085.725,940.46h-5.781a.264.264,0,0,1-.265-.272l.358-12.468a.265.265,0,0,1,.265-.257h5.058a.265.265,0,0,1,.265.257l.358,12.415a.256.256,0,0,1,.007.061A.264.264,0,0,1,1085.725,940.46Zm-5.509-.529h5.231l-.345-11.938h-4.543Z" transform="translate(-1079.679 -927.463)" fill="none" stroke="#f4fa1e" stroke-miterlimit="10" stroke-width="2"/>
      </g>
    </g>
    <path id="Path_72" data-name="Path 72" d="M1093.368,987.338h-52.076a.268.268,0,0,1-.281-.254V984.71a.269.269,0,0,1,.281-.254h52.076a.269.269,0,0,1,.281.254v2.374A.268.268,0,0,1,1093.368,987.338Z" transform="translate(41.036 -12.588)" fill="none" stroke="#f4fa1e" stroke-width="1"/>
  </g>
</svg>
