<svg id="noun_whatsapp_3196008" xmlns="http://www.w3.org/2000/svg" width="24.384" height="24.093" viewBox="0 0 24.384 24.093">
  <path id="Path_1221" data-name="Path 1221" d="M17.191,5A12.133,12.133,0,0,0,5,17.046a11.859,11.859,0,0,0,1.77,6.245l-1.746,5.17a.473.473,0,0,0,.117.492.494.494,0,0,0,.346.14.44.44,0,0,0,.156-.024l5.228-1.72a12.286,12.286,0,0,0,6.32,1.744A12.047,12.047,0,1,0,17.191,5Zm7.8,16.923a1.609,1.609,0,0,1-.478,1.132l-1.268,1.238a1.612,1.612,0,0,1-1.131.463h-.063A13.246,13.246,0,0,1,9.389,12.247a1.575,1.575,0,0,1,.468-1.185L11.11,9.809a1.65,1.65,0,0,1,1.151-.472h.468a1.619,1.619,0,0,1,1.512,1.036l1.112,2.915a1.6,1.6,0,0,1-.341,1.662l-.458.477a.627.627,0,0,0-.063.8,13.9,13.9,0,0,0,3.54,3.513.647.647,0,0,0,.79-.072l.5-.463a1.634,1.634,0,0,1,1.678-.337l2.95,1.1a1.606,1.606,0,0,1,1.048,1.494Z" transform="translate(-4.999 -5)" fill="#2d2234"/>
</svg>
